# This file uses centimeters as units for non-parametric coordinates.

mtllib UV_TRI_BuildingBlock_Wall_DTG.mtl
g default
v 0.000000 0.000000 0.000000
v 1.000000 0.000000 0.000000
v 0.000000 3.000001 0.000000
v 1.000000 3.000001 0.000000
v 0.000000 3.000001 -6.000002
v 1.000000 3.000001 -6.000002
v 0.000000 0.000000 -6.000002
v 1.000000 0.000000 -6.000002
vt 0.000000 -0.000000
vt 1.000000 -0.000000
vt 1.000000 1.000000
vt 0.000000 1.000000
vt 0.000000 1.000000
vt 1.000000 1.000000
vt 1.000000 -0.000000
vt 0.000000 -0.000000
vt 0.000000 -0.000000
vt 1.000000 -0.000000
vt 0.000000 -0.000000
vt 1.000000 -0.000000
vt 1.000000 1.000000
vt 0.000000 1.000000
vt 1.000000 -0.000000
vt 0.000000 -0.000000
vt 0.000000 1.000000
vt 1.000000 1.000000
vt 1.000000 1.000000
vt 0.000000 1.000000
vt 0.000000 1.000000
vt 1.000000 1.000000
vt 1.000000 0.000000
vt 0.000000 0.000000
vn 0.000000 0.000000 1.000000
vn 0.000000 0.000000 1.000000
vn 0.000000 0.000000 1.000000
vn 0.000000 0.000000 1.000000
vn 0.000000 1.000000 0.000000
vn 0.000000 1.000000 0.000000
vn 0.000000 1.000000 0.000000
vn 0.000000 1.000000 0.000000
vn 0.000000 0.000000 -1.000000
vn 0.000000 0.000000 -1.000000
vn 0.000000 0.000000 -1.000000
vn 0.000000 0.000000 -1.000000
vn 0.000000 -1.000000 0.000000
vn 0.000000 -1.000000 0.000000
vn 0.000000 -1.000000 0.000000
vn 0.000000 -1.000000 0.000000
vn 1.000000 0.000000 0.000000
vn 1.000000 0.000000 0.000000
vn 1.000000 0.000000 0.000000
vn 1.000000 0.000000 0.000000
vn -1.000000 0.000000 0.000000
vn -1.000000 0.000000 0.000000
vn -1.000000 0.000000 0.000000
vn -1.000000 0.000000 0.000000
s 1
g UV_Sidewalk1_Corner_DR:pCube1
usemtl initialShadingGroup
f 1/1/1 2/2/2 3/4/3
f 3/4/3 2/2/2 4/3/4
s 2
f 3/9/5 4/10/6 5/20/7
f 5/20/7 4/10/6 6/19/8
s 3
f 5/5/9 6/6/10 7/8/11
f 7/8/11 6/6/10 8/7/12
s 4
f 7/21/13 8/22/14 1/24/15
f 1/24/15 8/22/14 2/23/16
s 5
f 2/11/17 8/12/18 4/14/19
f 4/14/19 8/12/18 6/13/20
s 6
f 7/15/21 1/16/22 5/18/23
f 5/18/23 1/16/22 3/17/24
g default
v 0.000000 0.000000 0.000000
v 1.000000 0.000000 0.000000
v 0.000000 3.000001 0.000000
v 1.000000 3.000001 0.000000
v 0.000000 3.000001 -6.000002
v 1.000000 3.000001 -6.000002
v 0.000000 0.000000 -6.000002
v 1.000000 0.000000 -6.000002
vt 0.000000 -0.000000
vt 1.000000 -0.000000
vt 1.000000 1.000000
vt 0.000000 1.000000
vt 0.000000 1.000000
vt 1.000000 1.000000
vt 1.000000 -0.000000
vt 0.000000 -0.000000
vt 0.000000 -0.000000
vt 1.000000 -0.000000
vt 0.000000 -0.000000
vt 1.000000 -0.000000
vt 1.000000 1.000000
vt 0.000000 1.000000
vt 1.000000 -0.000000
vt 0.000000 -0.000000
vt 0.000000 1.000000
vt 1.000000 1.000000
vt 1.000000 1.000000
vt 0.000000 1.000000
vt 0.000000 1.000000
vt 1.000000 1.000000
vt 1.000000 0.000000
vt 0.000000 0.000000
vn 0.000000 0.000000 1.000000
vn 0.000000 0.000000 1.000000
vn 0.000000 0.000000 1.000000
vn 0.000000 0.000000 1.000000
vn 0.000000 1.000000 0.000000
vn 0.000000 1.000000 0.000000
vn 0.000000 1.000000 0.000000
vn 0.000000 1.000000 0.000000
vn 0.000000 0.000000 -1.000000
vn 0.000000 0.000000 -1.000000
vn 0.000000 0.000000 -1.000000
vn 0.000000 0.000000 -1.000000
vn 0.000000 -1.000000 0.000000
vn 0.000000 -1.000000 0.000000
vn 0.000000 -1.000000 0.000000
vn 0.000000 -1.000000 0.000000
vn 1.000000 0.000000 0.000000
vn 1.000000 0.000000 0.000000
vn 1.000000 0.000000 0.000000
vn 1.000000 0.000000 0.000000
vn -1.000000 0.000000 0.000000
vn -1.000000 0.000000 0.000000
vn -1.000000 0.000000 0.000000
vn -1.000000 0.000000 0.000000
s 1
g UV_Sidewalk1_Corner_DR:pCube1
f 9/25/25 10/26/26 11/28/27
f 11/28/27 10/26/26 12/27/28
s 2
f 11/33/29 12/34/30 13/44/31
f 13/44/31 12/34/30 14/43/32
s 3
f 13/29/33 14/30/34 15/32/35
f 15/32/35 14/30/34 16/31/36
s 4
f 15/45/37 16/46/38 9/48/39
f 9/48/39 16/46/38 10/47/40
s 5
f 10/35/41 16/36/42 12/38/43
f 12/38/43 16/36/42 14/37/44
s 6
f 15/39/45 9/40/46 13/42/47
f 13/42/47 9/40/46 11/41/48
