# This file uses centimeters as units for non-parametric coordinates.

mtllib beerbottle.mtl
g default
v 0.342506 -0.800809 -0.248845
v 0.130825 -0.800809 -0.402640
v -0.130826 -0.800809 -0.402640
v -0.342506 -0.800809 -0.248845
v -0.423360 -0.800809 -0.000000
v -0.342506 -0.800809 0.248845
v -0.130826 -0.800809 0.402640
v 0.130825 -0.800809 0.402640
v 0.342506 -0.800809 0.248845
v 0.423360 -0.800809 -0.000000
v 0.240012 2.834684 -0.174379
v 0.091676 2.834684 -0.282151
v -0.091677 2.834684 -0.282151
v -0.240012 2.834684 -0.174379
v -0.296672 2.834684 -0.000000
v -0.240012 2.834684 0.174379
v -0.091677 2.834684 0.282151
v 0.091677 2.834684 0.282151
v 0.240012 2.834684 0.174379
v 0.296672 2.834684 -0.000000
v 0.000000 -0.765223 0.000000
v 0.000000 2.796468 0.000000
v 0.554255 0.805872 -0.402690
v 0.211706 0.805872 -0.651565
v -0.211706 0.805872 -0.651565
v -0.554255 0.805872 -0.402690
v -0.685096 0.805872 0.000000
v -0.554255 0.805872 0.402690
v -0.211706 0.805872 0.651565
v 0.211706 0.805872 0.651565
v 0.554254 0.805872 0.402689
v 0.685096 0.805872 -0.000000
v 0.297518 1.489335 -0.216159
v 0.367752 1.489335 -0.000000
v 0.297518 1.489335 0.216159
v 0.113642 1.489335 0.349753
v -0.113642 1.489335 0.349753
v -0.297518 1.489335 0.216159
v -0.367752 1.489335 -0.000000
v -0.297518 1.489335 -0.216159
v -0.113642 1.489335 -0.349754
v 0.113642 1.489335 -0.349754
v 0.485627 -0.717997 -0.352829
v 0.185493 -0.717997 -0.570889
v -0.185493 -0.717997 -0.570889
v -0.485627 -0.717997 -0.352829
v -0.600268 -0.717997 0.000000
v -0.485627 -0.717997 0.352829
v -0.185493 -0.717997 0.570889
v 0.185493 -0.717997 0.570889
v 0.485627 -0.717997 0.352829
v 0.600268 -0.717997 -0.000000
v 0.238181 2.624998 -0.173049
v 0.294408 2.624998 -0.000000
v 0.238181 2.624998 0.173048
v 0.090977 2.624998 0.279998
v -0.090977 2.624998 0.279998
v -0.238181 2.624998 0.173049
v -0.294408 2.624998 -0.000000
v -0.238181 2.624998 -0.173049
v -0.090977 2.624998 -0.279998
v 0.090977 2.624998 -0.279998
v 0.264772 2.660390 -0.192368
v 0.327276 2.660390 -0.000000
v 0.266807 2.792762 -0.193847
v 0.329793 2.792762 -0.000000
v 0.264772 2.660390 0.192368
v 0.266807 2.792762 0.193847
v 0.101134 2.660390 0.311258
v 0.101911 2.792762 0.313651
v -0.101134 2.660390 0.311258
v -0.101911 2.792762 0.313651
v -0.264772 2.660390 0.192368
v -0.266807 2.792762 0.193847
v -0.327276 2.660390 -0.000000
v -0.329793 2.792762 -0.000000
v -0.264772 2.660390 -0.192368
v -0.266807 2.792762 -0.193847
v -0.101134 2.660390 -0.311258
v -0.101912 2.792762 -0.313651
v 0.101134 2.660390 -0.311258
v 0.101911 2.792762 -0.313651
vt 0.626409 0.064409
vt 0.548284 0.007647
vt 0.451716 0.007647
vt 0.373591 0.064409
vt 0.343750 0.156250
vt 0.373591 0.248091
vt 0.451716 0.304853
vt 0.548284 0.304853
vt 0.626409 0.248091
vt 0.656250 0.156250
vt 0.375000 0.312500
vt 0.400000 0.312500
vt 0.425000 0.312500
vt 0.450000 0.312500
vt 0.475000 0.312500
vt 0.500000 0.312500
vt 0.525000 0.312500
vt 0.550000 0.312500
vt 0.575000 0.312500
vt 0.600000 0.312500
vt 0.625000 0.312500
vt 0.375000 0.688440
vt 0.400000 0.688440
vt 0.425000 0.688440
vt 0.450000 0.688440
vt 0.475000 0.688440
vt 0.500000 0.688440
vt 0.525000 0.688440
vt 0.550000 0.688440
vt 0.575000 0.688440
vt 0.600000 0.688440
vt 0.625000 0.688440
vt 0.626409 0.751909
vt 0.548284 0.695147
vt 0.451716 0.695147
vt 0.373591 0.751909
vt 0.343750 0.843750
vt 0.373591 0.935591
vt 0.451716 0.992353
vt 0.548284 0.992353
vt 0.626409 0.935591
vt 0.656250 0.843750
vt 0.500000 0.150000
vt 0.500000 0.837500
vt 0.625000 0.494589
vt 0.375000 0.494589
vt 0.400000 0.494589
vt 0.425000 0.494589
vt 0.450000 0.494589
vt 0.475000 0.494589
vt 0.500000 0.494589
vt 0.525000 0.494589
vt 0.550000 0.494589
vt 0.575000 0.494589
vt 0.600000 0.494589
vt 0.625000 0.608688
vt 0.375000 0.608688
vt 0.600000 0.608688
vt 0.575000 0.608688
vt 0.550000 0.608688
vt 0.525000 0.608688
vt 0.500000 0.608688
vt 0.475000 0.608688
vt 0.450000 0.608688
vt 0.425000 0.608688
vt 0.400000 0.608688
vt 0.625000 0.383183
vt 0.375000 0.383183
vt 0.400000 0.383183
vt 0.425000 0.383183
vt 0.450000 0.383183
vt 0.475000 0.383183
vt 0.500000 0.383183
vt 0.525000 0.383183
vt 0.550000 0.383183
vt 0.575000 0.383183
vt 0.600000 0.383183
vt 0.625000 0.681117
vt 0.375000 0.681117
vt 0.600000 0.681117
vt 0.575000 0.681117
vt 0.550000 0.681117
vt 0.525000 0.681117
vt 0.500000 0.681117
vt 0.475000 0.681117
vt 0.450000 0.681117
vt 0.425000 0.681117
vt 0.400000 0.681117
vt 0.600000 0.681117
vt 0.625000 0.681117
vt 0.625000 0.688440
vt 0.600000 0.688440
vt 0.575000 0.681117
vt 0.575000 0.688440
vt 0.550000 0.681117
vt 0.550000 0.688440
vt 0.525000 0.681117
vt 0.525000 0.688440
vt 0.500000 0.681117
vt 0.500000 0.688440
vt 0.475000 0.681117
vt 0.475000 0.688440
vt 0.450000 0.681117
vt 0.450000 0.688440
vt 0.425000 0.681117
vt 0.425000 0.688440
vt 0.400000 0.681117
vt 0.400000 0.688440
vt 0.375000 0.681117
vt 0.375000 0.688440
vn 0.586238 0.072504 -0.806888
vn 0.586238 0.072504 -0.806888
vn 0.569407 0.248110 -0.783720
vn 0.569407 0.248110 -0.783720
vn -0.000000 0.072504 -0.997368
vn -0.000000 0.072504 -0.997368
vn -0.000000 0.248110 -0.968732
vn -0.000000 0.248110 -0.968732
vn -0.586239 0.072504 -0.806888
vn -0.586239 0.072504 -0.806888
vn -0.569407 0.248110 -0.783720
vn -0.569407 0.248110 -0.783720
vn -0.948554 0.072504 -0.308203
vn -0.948554 0.072504 -0.308203
vn -0.921319 0.248110 -0.299355
vn -0.921319 0.248110 -0.299355
vn -0.948554 0.072504 0.308203
vn -0.948554 0.072504 0.308203
vn -0.921319 0.248110 0.299355
vn -0.921319 0.248110 0.299355
vn -0.586238 0.072504 0.806888
vn -0.586238 0.072504 0.806888
vn -0.569407 0.248110 0.783721
vn -0.569407 0.248110 0.783721
vn 0.000000 0.072504 0.997368
vn 0.000000 0.072504 0.997368
vn 0.000000 0.248110 0.968732
vn 0.000000 0.248110 0.968732
vn 0.586238 0.072504 0.806888
vn 0.586238 0.072504 0.806888
vn 0.569407 0.248110 0.783720
vn 0.569407 0.248110 0.783720
vn 0.948554 0.072504 0.308204
vn 0.948554 0.072504 0.308204
vn 0.921319 0.248110 0.299355
vn 0.921319 0.248110 0.299355
vn 0.948554 0.072504 -0.308203
vn 0.948554 0.072504 -0.308203
vn 0.921319 0.248110 -0.299355
vn 0.921319 0.248110 -0.299355
vn -0.025883 -0.996486 0.079660
vn -0.067763 -0.996486 0.049233
vn -0.000000 -1.000000 -0.000000
vn 0.025883 -0.996486 0.079660
vn 0.067764 -0.996486 0.049233
vn 0.083760 -0.996486 -0.000000
vn 0.067763 -0.996486 -0.049233
vn 0.025883 -0.996486 -0.079661
vn -0.025883 -0.996486 -0.079660
vn -0.067763 -0.996486 -0.049233
vn -0.083760 -0.996486 0.000000
vn -0.103360 0.991805 0.075097
vn -0.039480 0.991805 0.121509
vn -0.000000 1.000000 0.000000
vn 0.039480 0.991805 0.121507
vn 0.103360 0.991805 0.075096
vn 0.127760 0.991805 0.000000
vn 0.103360 0.991805 -0.075097
vn 0.039480 0.991805 -0.121507
vn -0.039480 0.991805 -0.121507
vn -0.103360 0.991805 -0.075096
vn -0.127760 0.991805 0.000000
vn 0.583598 -0.119147 -0.803254
vn 0.583598 -0.119147 -0.803254
vn -0.000000 -0.119147 -0.992877
vn -0.000000 -0.119147 -0.992877
vn -0.583598 -0.119147 -0.803254
vn -0.583598 -0.119147 -0.803254
vn -0.944282 -0.119147 -0.306816
vn -0.944282 -0.119147 -0.306816
vn -0.944282 -0.119147 0.306816
vn -0.944282 -0.119147 0.306816
vn -0.583598 -0.119147 0.803254
vn -0.583598 -0.119147 0.803254
vn 0.000000 -0.119147 0.992877
vn 0.000000 -0.119147 0.992877
vn 0.583598 -0.119147 0.803254
vn 0.583598 -0.119147 0.803254
vn 0.944282 -0.119147 0.306816
vn 0.944282 -0.119147 0.306816
vn 0.944282 -0.119147 -0.306816
vn 0.944282 -0.119147 -0.306816
vn 0.949267 0.061306 -0.308436
vn 0.949267 0.061306 -0.308436
vn 0.949267 0.061306 0.308436
vn 0.949267 0.061306 0.308436
vn 0.586680 0.061307 0.807495
vn 0.586680 0.061307 0.807495
vn 0.000000 0.061307 0.998119
vn 0.000000 0.061307 0.998119
vn -0.586680 0.061307 0.807495
vn -0.586680 0.061307 0.807495
vn -0.949267 0.061306 0.308436
vn -0.949267 0.061306 0.308436
vn -0.949267 0.061306 -0.308436
vn -0.949267 0.061306 -0.308436
vn -0.586680 0.061307 -0.807495
vn -0.586680 0.061307 -0.807495
vn -0.000000 0.061307 -0.998119
vn -0.000000 0.061307 -0.998119
vn 0.586680 0.061307 -0.807495
vn 0.586680 0.061307 -0.807495
vn 0.259569 -0.897210 -0.357266
vn 0.259569 -0.897210 -0.357266
vn -0.000000 -0.897210 -0.441605
vn -0.000000 -0.897210 -0.441605
vn -0.259569 -0.897210 -0.357265
vn -0.259569 -0.897210 -0.357265
vn -0.419991 -0.897210 -0.136463
vn -0.419991 -0.897210 -0.136463
vn -0.419991 -0.897210 0.136463
vn -0.419991 -0.897210 0.136463
vn -0.259569 -0.897209 0.357266
vn -0.259569 -0.897209 0.357266
vn 0.000000 -0.897210 0.441605
vn 0.000000 -0.897210 0.441605
vn 0.259569 -0.897209 0.357266
vn 0.259569 -0.897210 0.357266
vn 0.419991 -0.897210 0.136463
vn 0.419991 -0.897210 0.136463
vn 0.419992 -0.897210 -0.136463
vn 0.419992 -0.897210 -0.136463
vn 0.950900 -0.018077 -0.308969
vn 0.950900 -0.018077 -0.308969
vn 0.950900 -0.018077 -0.308969
vn 0.950900 -0.018077 -0.308969
vn 0.950900 -0.018077 0.308969
vn 0.950900 -0.018077 0.308969
vn 0.950900 -0.018077 0.308969
vn 0.950900 -0.018077 0.308969
vn 0.587689 -0.018076 0.808885
vn 0.587689 -0.018076 0.808885
vn 0.587689 -0.018076 0.808885
vn 0.587689 -0.018076 0.808885
vn 0.000000 -0.018076 0.999837
vn 0.000000 -0.018076 0.999837
vn 0.000000 -0.018076 0.999837
vn 0.000000 -0.018076 0.999837
vn -0.587690 -0.018076 0.808884
vn -0.587690 -0.018076 0.808885
vn -0.587690 -0.018076 0.808885
vn -0.587690 -0.018076 0.808885
vn -0.950900 -0.018077 0.308970
vn -0.950900 -0.018077 0.308970
vn -0.950900 -0.018077 0.308970
vn -0.950900 -0.018077 0.308970
vn -0.950900 -0.018077 -0.308969
vn -0.950900 -0.018077 -0.308969
vn -0.950900 -0.018077 -0.308969
vn -0.950900 -0.018077 -0.308969
vn -0.587689 -0.018076 -0.808885
vn -0.587689 -0.018076 -0.808885
vn -0.587689 -0.018076 -0.808885
vn -0.587689 -0.018076 -0.808885
vn -0.000001 -0.018076 -0.999837
vn -0.000001 -0.018076 -0.999837
vn -0.000001 -0.018076 -0.999837
vn -0.000001 -0.018076 -0.999837
vn 0.587689 -0.018076 -0.808885
vn 0.587689 -0.018076 -0.808885
vn 0.587689 -0.018076 -0.808885
vn 0.587689 -0.018076 -0.808885
vn 0.712824 -0.661995 -0.231612
vn 0.712824 -0.661995 -0.231612
vn 0.712824 -0.661995 -0.231612
vn 0.712824 -0.661995 -0.231612
vn 0.760338 0.600710 -0.247051
vn 0.760338 0.600710 -0.247051
vn 0.760338 0.600710 -0.247051
vn 0.760338 0.600710 -0.247051
vn 0.712824 -0.661995 0.231612
vn 0.712824 -0.661995 0.231612
vn 0.712824 -0.661995 0.231612
vn 0.712824 -0.661995 0.231612
vn 0.760337 0.600710 0.247052
vn 0.760337 0.600710 0.247052
vn 0.760337 0.600710 0.247052
vn 0.760337 0.600710 0.247052
vn 0.440549 -0.661993 0.606367
vn 0.440549 -0.661993 0.606367
vn 0.440549 -0.661993 0.606368
vn 0.440549 -0.661993 0.606368
vn 0.469914 0.600710 0.646783
vn 0.469914 0.600710 0.646783
vn 0.469914 0.600710 0.646783
vn 0.469914 0.600710 0.646783
vn 0.000000 -0.661995 0.749508
vn 0.000000 -0.661995 0.749508
vn 0.000000 -0.661995 0.749508
vn 0.000000 -0.661995 0.749508
vn 0.000000 0.600710 0.799467
vn 0.000000 0.600710 0.799467
vn 0.000000 0.600710 0.799467
vn 0.000000 0.600710 0.799467
vn -0.440549 -0.661995 0.606366
vn -0.440549 -0.661995 0.606366
vn -0.440549 -0.661995 0.606366
vn -0.440549 -0.661995 0.606366
vn -0.469914 0.600709 0.646785
vn -0.469914 0.600709 0.646785
vn -0.469914 0.600709 0.646785
vn -0.469914 0.600709 0.646785
vn -0.712824 -0.661995 0.231612
vn -0.712824 -0.661995 0.231612
vn -0.712824 -0.661995 0.231612
vn -0.712824 -0.661995 0.231612
vn -0.760338 0.600710 0.247052
vn -0.760337 0.600710 0.247052
vn -0.760338 0.600710 0.247052
vn -0.760338 0.600710 0.247052
vn -0.712824 -0.661995 -0.231612
vn -0.712824 -0.661995 -0.231612
vn -0.712824 -0.661995 -0.231612
vn -0.712824 -0.661995 -0.231612
vn -0.760337 0.600710 -0.247052
vn -0.760337 0.600710 -0.247052
vn -0.760337 0.600710 -0.247052
vn -0.760337 0.600710 -0.247052
vn -0.440549 -0.661993 -0.606367
vn -0.440549 -0.661993 -0.606367
vn -0.440549 -0.661993 -0.606367
vn -0.440549 -0.661993 -0.606367
vn -0.469914 0.600710 -0.646783
vn -0.469914 0.600710 -0.646783
vn -0.469914 0.600710 -0.646783
vn -0.469914 0.600710 -0.646783
vn -0.000000 -0.661998 -0.749506
vn -0.000000 -0.661998 -0.749506
vn -0.000000 -0.661998 -0.749506
vn -0.000000 -0.661998 -0.749505
vn -0.000000 0.600708 -0.799469
vn -0.000000 0.600708 -0.799469
vn -0.000000 0.600708 -0.799469
vn -0.000000 0.600708 -0.799469
vn 0.440551 -0.661996 -0.606363
vn 0.440551 -0.661996 -0.606363
vn 0.440551 -0.661996 -0.606363
vn 0.440551 -0.661996 -0.606363
vn 0.469914 0.600710 -0.646783
vn 0.469914 0.600710 -0.646783
vn 0.469914 0.600710 -0.646783
vn 0.469914 0.600710 -0.646783
s 1
g pCylinder1
usemtl initialShadingGroup
f 23/46/1 24/47/2 42/66/3 33/57/4
s 2
f 24/47/5 25/48/6 41/65/7 42/66/8
s 3
f 25/48/9 26/49/10 40/64/11 41/65/12
s 4
f 26/49/13 27/50/14 39/63/15 40/64/16
s 5
f 27/50/17 28/51/18 38/62/19 39/63/20
s 6
f 28/51/21 29/52/22 37/61/23 38/62/24
s 7
f 29/52/25 30/53/26 36/60/27 37/61/28
s 8
f 30/53/29 31/54/30 35/59/31 36/60/32
s 9
f 31/54/33 32/55/34 34/58/35 35/59/36
s 10
f 32/55/37 23/45/38 33/56/39 34/58/40
s 11
f 2/2/41 1/1/42 21/43/43
f 3/3/44 2/2/41 21/43/43
f 4/4/45 3/3/44 21/43/43
f 5/5/46 4/4/45 21/43/43
f 6/6/47 5/5/46 21/43/43
f 7/7/48 6/6/47 21/43/43
f 8/8/49 7/7/48 21/43/43
f 9/9/50 8/8/49 21/43/43
f 10/10/51 9/9/50 21/43/43
f 1/1/42 10/10/51 21/43/43
s 12
f 11/41/52 12/40/53 22/44/54
f 12/40/53 13/39/55 22/44/54
f 13/39/55 14/38/56 22/44/54
f 14/38/56 15/37/57 22/44/54
f 15/37/57 16/36/58 22/44/54
f 16/36/58 17/35/59 22/44/54
f 17/35/59 18/34/60 22/44/54
f 18/34/60 19/33/61 22/44/54
f 19/33/61 20/42/62 22/44/54
f 20/42/62 11/41/52 22/44/54
s 1
f 43/68/63 44/69/64 24/47/2 23/46/1
s 2
f 44/69/65 45/70/66 25/48/6 24/47/5
s 3
f 45/70/67 46/71/68 26/49/10 25/48/9
s 4
f 46/71/69 47/72/70 27/50/14 26/49/13
s 5
f 47/72/71 48/73/72 28/51/18 27/50/17
s 6
f 48/73/73 49/74/74 29/52/22 28/51/21
s 7
f 49/74/75 50/75/76 30/53/26 29/52/25
s 8
f 50/75/77 51/76/78 31/54/30 30/53/29
s 9
f 51/76/79 52/77/80 32/55/34 31/54/33
s 10
f 52/77/81 43/67/82 23/45/38 32/55/37
f 34/58/40 33/56/39 53/78/83 54/80/84
s 9
f 35/59/36 34/58/35 54/80/85 55/81/86
s 8
f 36/60/32 35/59/31 55/81/87 56/82/88
s 7
f 37/61/28 36/60/27 56/82/89 57/83/90
s 6
f 38/62/24 37/61/23 57/83/91 58/84/92
s 5
f 39/63/20 38/62/19 58/84/93 59/85/94
s 4
f 40/64/16 39/63/15 59/85/95 60/86/96
s 3
f 41/65/12 40/64/11 60/86/97 61/87/98
s 2
f 42/66/8 41/65/7 61/87/99 62/88/100
s 1
f 33/57/4 42/66/3 62/88/101 53/79/102
f 1/11/103 2/12/104 44/69/64 43/68/63
s 2
f 2/12/105 3/13/106 45/70/66 44/69/65
s 3
f 3/13/107 4/14/108 46/71/68 45/70/67
s 4
f 4/14/109 5/15/110 47/72/70 46/71/69
s 5
f 5/15/111 6/16/112 48/73/72 47/72/71
s 6
f 6/16/113 7/17/114 49/74/74 48/73/73
s 7
f 7/17/115 8/18/116 50/75/76 49/74/75
s 8
f 8/18/117 9/19/118 51/76/78 50/75/77
s 9
f 9/19/119 10/20/120 52/77/80 51/76/79
s 10
f 10/20/121 1/21/122 43/67/82 52/77/81
s off
f 64/89/123 63/90/124 65/91/125 66/92/126
f 67/93/127 64/89/128 66/92/129 68/94/130
f 69/95/131 67/93/132 68/94/133 70/96/134
f 71/97/135 69/95/136 70/96/137 72/98/138
f 73/99/139 71/97/140 72/98/141 74/100/142
f 75/101/143 73/99/144 74/100/145 76/102/146
f 77/103/147 75/101/148 76/102/149 78/104/150
f 79/105/151 77/103/152 78/104/153 80/106/154
f 81/107/155 79/105/156 80/106/157 82/108/158
f 63/109/159 81/107/160 82/108/161 65/110/162
f 54/80/163 53/78/164 63/90/165 64/89/166
f 11/32/167 20/31/168 66/92/169 65/91/170
f 55/81/171 54/80/172 64/89/173 67/93/174
f 20/31/175 19/30/176 68/94/177 66/92/178
f 56/82/179 55/81/180 67/93/181 69/95/182
f 19/30/183 18/29/184 70/96/185 68/94/186
f 57/83/187 56/82/188 69/95/189 71/97/190
f 18/29/191 17/28/192 72/98/193 70/96/194
f 58/84/195 57/83/196 71/97/197 73/99/198
f 17/28/199 16/27/200 74/100/201 72/98/202
f 59/85/203 58/84/204 73/99/205 75/101/206
f 16/27/207 15/26/208 76/102/209 74/100/210
f 60/86/211 59/85/212 75/101/213 77/103/214
f 15/26/215 14/25/216 78/104/217 76/102/218
f 61/87/219 60/86/220 77/103/221 79/105/222
f 14/25/223 13/24/224 80/106/225 78/104/226
f 62/88/227 61/87/228 79/105/229 81/107/230
f 13/24/231 12/23/232 82/108/233 80/106/234
f 53/79/235 62/88/236 81/107/237 63/109/238
f 12/23/239 11/22/240 65/110/241 82/108/242
