# This file uses centimeters as units for non-parametric coordinates.

mtllib paper.mtl
g default
v -0.384578 0.009522 0.731678
v 0.615363 0.020439 0.731494
v -0.500163 0.023360 -0.509498
v 0.499777 0.034277 -0.509682
v -0.451046 0.012699 0.699383
v 0.370369 0.060285 0.131041
v -1.107276 0.067323 -0.270625
v -0.285860 0.114909 -0.838966
v 0.043577 0.052839 0.022044
v 1.012734 0.070497 0.164393
v 0.188683 0.064293 -0.967306
v 1.157840 0.081951 -0.824957
vt 0.381651 0.381651
vt 0.618349 0.381651
vt 0.381651 0.618349
vt 0.618349 0.618349
vt 0.073363 0.381651
vt 0.310060 0.381651
vt 0.310060 0.618349
vt 0.073363 0.618349
vt 0.666225 0.381651
vt 0.902923 0.381651
vt 0.902923 0.618349
vt 0.666225 0.618349
vn -0.010913 0.999866 0.012164
vn -0.010913 0.999866 0.012164
vn -0.010913 0.999866 0.012164
vn -0.010913 0.999867 0.012164
vn -0.012892 0.997808 0.064912
vn -0.012892 0.997808 0.064912
vn -0.012892 0.997808 0.064912
vn -0.012892 0.997808 0.064912
vn -0.019496 0.999772 0.008715
vn -0.019496 0.999772 0.008715
vn -0.019496 0.999772 0.008715
vn -0.019496 0.999772 0.008715
s off
g pPlane4
usemtl initialShadingGroup
f 1/1/1 2/2/2 4/4/3 3/3/4
f 5/5/5 6/6/6 8/7/7 7/8/8
f 9/9/9 10/10/10 12/11/11 11/12/12
