# This file uses centimeters as units for non-parametric coordinates.

mtllib UV_TRI_Panel1_1x2_DTG.mtl
g default
v -0.150000 0.000000 0.000000
v -0.150000 1.000000 0.000000
v -0.150000 1.000000 -2.000000
v -0.150000 0.000000 -2.000000
v -0.000000 0.000000 0.000000
v 0.000000 1.000000 0.000000
v 0.000000 1.000000 -2.000000
v -0.000000 0.000000 -2.000000
v -0.050000 0.074992 -1.925007
v -0.050000 0.074992 -0.074992
v -0.000000 0.049995 -0.049995
v -0.024997 0.074992 -0.074992
v -0.000000 0.049995 -1.950005
v -0.024997 0.074992 -1.925007
v 0.000000 0.950005 -0.049995
v -0.025000 0.925008 -0.074992
v 0.000000 0.950005 -1.950005
v -0.025000 0.925008 -1.925008
v -0.050000 0.900010 -1.925008
v -0.050000 0.900010 -0.074992
vt 1.000000 0.000000
vt 0.000000 0.000000
vt 0.000000 1.000000
vt 1.000000 1.000000
vt 0.000000 0.000000
vt 0.000000 -0.000000
vt 1.000000 -0.000000
vt 1.000000 0.000000
vt 0.000000 1.000000
vt 0.000000 1.000000
vt 1.000000 1.000000
vt 0.000000 0.000000
vt 1.000000 1.000000
vt 0.000000 1.000000
vt 0.000000 1.000000
vt 0.000000 0.000000
vt 0.037496 0.074992
vt 0.962504 0.074992
vt 0.962504 0.900010
vt 0.037496 0.074992
vt 0.962504 0.074992
vt 0.962504 0.925007
vt 0.037496 0.925007
vt 0.962504 0.925007
vt 0.037496 0.925007
vt 0.037496 0.900010
vt 0.025044 0.049996
vt 1.000000 0.000000
vt 0.000000 0.000000
vt 0.024996 0.950008
vt 0.000000 1.000000
vt 0.975003 0.950005
vt 1.000000 1.000000
vt 0.975002 0.049995
vt 0.833350 0.037496
vt 0.833350 0.962504
vt 0.666667 0.962504
vt 0.666667 0.037496
vt 0.833350 0.074992
vt 0.833333 0.925007
vt 0.666667 0.900010
vt 0.666667 0.074992
vt 0.833333 0.925007
vt 0.833350 0.074992
vt 0.666667 0.074992
vt 0.666667 0.900010
vn -1.000000 0.000000 0.000000
vn -1.000000 0.000000 0.000000
vn -1.000000 0.000000 0.000000
vn -1.000000 0.000000 0.000000
vn 0.000000 0.000000 1.000000
vn 0.000000 0.000000 1.000000
vn 0.000000 0.000000 1.000000
vn 0.000000 0.000000 1.000000
vn 0.000001 1.000000 0.000000
vn 0.000001 1.000000 0.000000
vn 0.000001 1.000000 0.000000
vn 0.000001 1.000000 0.000000
vn 0.000000 0.000000 -1.000000
vn -0.000000 0.000000 -1.000000
vn -0.000002 0.000000 -1.000000
vn -0.000002 0.000000 -1.000000
vn -0.000000 -1.000000 0.000000
vn -0.000000 -1.000000 0.000000
vn -0.000000 -1.000000 0.000000
vn -0.000000 -1.000000 0.000000
vn 1.000000 0.000000 0.000000
vn 1.000000 0.000000 0.000000
vn 1.000000 0.000000 0.000000
vn 1.000000 0.000000 0.000000
vn 0.707107 -0.000000 -0.707107
vn 0.707106 0.000000 -0.707107
vn 0.707072 0.000002 -0.707142
vn 0.707070 0.000002 -0.707143
vn 0.707107 0.707107 0.000000
vn 0.707107 0.707107 0.000000
vn 0.707107 0.707107 0.000000
vn 0.707107 0.707107 0.000000
vn 0.707101 0.000002 0.707112
vn 0.707100 0.000002 0.707113
vn 0.707076 0.000000 0.707138
vn 0.707076 0.000000 0.707138
vn 0.707071 -0.707143 0.000000
vn 0.707071 -0.707143 0.000000
vn 0.707071 -0.707143 0.000000
vn 0.707071 -0.707143 0.000000
vn 0.707071 -0.707143 0.000000
vn 0.707071 -0.707142 0.000000
vn 0.707071 -0.707143 0.000000
vn 0.707071 -0.707143 0.000000
vn 1.000000 -0.000000 0.000000
vn 1.000000 -0.000000 0.000000
vn 1.000000 -0.000000 -0.000000
vn 1.000000 -0.000000 -0.000000
vn 1.000000 -0.000000 -0.000000
vn 1.000000 -0.000000 -0.000000
vn 1.000000 -0.000000 0.000000
vn 1.000000 -0.000000 0.000000
vn 0.000000 1.000000 0.000000
vn 0.000000 1.000000 0.000000
vn 0.000000 1.000000 0.000000
vn 0.000000 1.000000 0.000000
vn -0.000011 0.000000 1.000000
vn -0.000011 0.000000 1.000000
vn -0.000000 0.000000 1.000000
vn 0.000000 0.000000 1.000000
vn -0.000000 0.000000 -1.000000
vn -0.000000 0.000000 -1.000000
vn -0.000000 0.000000 -1.000000
vn 0.000000 0.000000 -1.000000
s 1
g pCube1
usemtl anisotropic1SG
f 4/1/1 1/2/2 3/4/3
f 3/4/3 1/2/2 2/3/4
s 2
f 1/5/5 5/8/6 2/14/7
f 2/14/7 5/8/6 6/13/8
s 3
f 2/6/9 6/7/10 3/9/11
f 3/9/11 6/7/10 7/33/12
s 4
f 3/15/13 7/33/14 4/16/15
f 4/16/15 7/33/14 8/28/16
s 5
f 4/10/17 8/11/18 1/12/19
f 1/12/19 8/11/18 5/8/20
s 6
usemtl anisotropic2SG
f 10/17/21 9/18/22 20/26/23
f 20/26/23 9/18/22 19/19/24
s 7
usemtl anisotropic1SG
f 11/27/25 12/20/26 15/30/27
f 15/30/27 12/20/26 16/23/28
s 8
f 12/20/29 11/27/30 14/21/31
f 14/21/31 11/27/30 13/34/32
s 9
f 14/21/33 13/34/34 18/22/35
f 18/22/35 13/34/34 17/32/36
s 10
f 15/30/37 16/23/38 17/32/39
f 17/32/39 16/23/38 18/22/40
s 11
f 19/19/41 18/24/42 20/26/43
f 20/26/43 18/24/42 16/25/44
s 12
f 11/27/45 5/29/46 13/34/47
f 13/34/47 5/29/46 8/28/48
f 5/29/46 11/27/45 6/31/49
f 6/31/49 11/27/45 15/30/50
f 6/31/49 15/30/50 7/33/51
f 7/33/51 15/30/50 17/32/52
f 7/33/51 17/32/52 8/28/48
f 8/28/48 17/32/52 13/34/47
s 13
f 12/35/53 14/36/54 10/38/55
f 10/38/55 14/36/54 9/37/56
s 14
f 18/40/57 19/41/58 14/39/59
f 14/39/59 19/41/58 9/42/60
s 15
f 16/43/61 12/44/62 20/46/63
f 20/46/63 12/44/62 10/45/64
