# This file uses centimeters as units for non-parametric coordinates.

mtllib UV_TrashBin1_DTG.mtl
g default
v -1.000000 0.250000 -1.000000
v 0.000000 0.250000 -1.000000
v 0.000000 0.250000 0.000000
v -1.000000 0.250000 0.000000
v -1.050000 0.250000 0.050000
v 0.050000 0.250000 0.050000
v 0.050000 0.300000 0.050000
v -1.050000 0.300000 0.050000
v -1.050000 0.250000 -1.050000
v -1.050000 0.300000 -1.050000
v 0.050000 0.250000 -1.050000
v 0.050000 0.300000 -1.050000
v -1.000000 0.300000 -1.000000
v 0.000000 0.300000 -1.000000
v 0.000000 0.300000 0.000000
v -1.000000 0.300000 0.000000
v 0.000000 1.200000 0.000000
v -1.000000 1.200000 0.000000
v 0.000000 1.200000 -1.000000
v -1.050000 1.200000 0.050000
v 0.050000 1.200000 0.050000
v -1.000000 1.200000 -1.000000
v 0.050000 1.200000 -1.050000
v 0.050000 1.250000 0.050000
v -1.050000 1.250000 0.050000
v -1.050000 1.200000 -1.050000
v 0.050000 1.250000 -1.050000
v -1.050000 1.250000 -1.050000
v -0.000000 1.250000 0.000000
v -0.500000 1.250000 0.000000
v -1.000000 1.250000 0.000000
v -0.000000 1.250000 -1.000000
v -1.000000 1.250000 -1.000000
v -0.024472 1.404508 0.000000
v -0.975528 1.404509 0.000000
v -0.500000 1.250000 -1.000000
v -0.024472 1.404508 -1.000000
v -0.975528 1.404509 -1.000000
v -0.095491 1.543892 0.000000
v -0.904508 1.543893 0.000000
v -0.073127 1.500000 -0.100000
v -0.095491 1.543893 -0.100000
v -0.095491 1.543893 -1.000000
v -0.095491 1.543893 -0.900000
v -0.073127 1.500000 -0.900000
v -0.904508 1.543892 -1.000000
v -0.206107 1.654509 0.000000
v -0.793893 1.654509 0.000000
v -0.073127 1.300000 -0.900000
v -0.073127 1.300000 -0.100000
v -0.350000 1.700000 -0.100000
v -0.295389 1.700000 -0.100000
v -0.206107 1.654509 -0.100000
v -0.350000 1.500000 -0.100000
v -0.206107 1.654509 -1.000000
v -0.206107 1.654509 -0.900000
v -0.295389 1.700000 -0.900000
v -0.350000 1.700000 -0.900000
v -0.350000 1.500000 -0.900000
v -0.793893 1.654509 -1.000000
v -0.345491 1.725528 0.000000
v -0.654508 1.725529 0.000000
v -0.350000 1.300000 -0.100000
v -0.350000 1.300000 -0.900000
v -0.345491 1.725528 -1.000000
v -0.654508 1.725528 -1.000000
v -0.500000 1.750000 0.000000
v -0.500000 1.750000 -1.000000
v -0.150000 0.000000 0.000000
v 0.000000 0.000000 0.000000
v 0.000000 0.250000 0.000000
v -0.150000 0.250000 0.000000
v -0.150000 0.000000 -0.150000
v -0.150000 0.250000 -0.150000
v 0.000000 0.000000 -0.150000
v 0.000000 0.250000 -0.150000
v -0.150000 0.000000 -0.850000
v 0.000000 0.000000 -0.850000
v 0.000000 0.250000 -0.850000
v -0.150000 0.250000 -0.850000
v -0.150000 0.000000 -1.000000
v -0.150000 0.250000 -1.000000
v 0.000000 0.000000 -1.000000
v 0.000000 0.250000 -1.000000
v -1.000000 0.000000 -0.850000
v -0.850000 0.000000 -0.850000
v -0.850000 0.250000 -0.850000
v -1.000000 0.250000 -0.850000
v -1.000000 0.000000 -1.000000
v -1.000000 0.250000 -1.000000
v -0.850000 0.000000 -1.000000
v -0.850000 0.250000 -1.000000
v -1.000000 0.000000 0.000000
v -0.850000 0.000000 0.000000
v -0.850000 0.250000 0.000000
v -1.000000 0.250000 0.000000
v -1.000000 0.000000 -0.150000
v -1.000000 0.250000 -0.150000
v -0.850000 0.000000 -0.150000
v -0.850000 0.250000 -0.150000
vt 0.387170 0.759510
vt 0.612830 0.759510
vt 0.612830 0.985171
vt 0.387170 0.985171
vt 0.003546 0.003546
vt 0.996454 0.003546
vt 0.996454 0.053191
vt 0.003546 0.053191
vt 0.996454 0.003546
vt 0.003546 0.003546
vt 0.003546 0.053191
vt 0.996454 0.053191
vt 0.951322 0.048678
vt 0.951322 0.951322
vt 0.003546 0.053191
vt 0.996454 0.053191
vt 0.048678 0.951322
vt 0.003546 0.996454
vt 0.996454 0.996454
vt 0.996454 0.003546
vt 0.003546 0.003546
vt 0.996454 0.003546
vt 0.989412 0.059529
vt 0.989412 0.940471
vt 0.010588 0.940471
vt 0.010588 0.059529
vt 0.989412 0.059529
vt 0.989412 0.940471
vt 0.010588 0.940471
vt 0.010588 0.059529
vt 0.048678 0.048678
vt 0.003546 0.003546
vt 0.003546 0.003546
vt 0.996454 0.003546
vt 0.989412 0.940471
vt 0.989412 0.059529
vt 0.010588 0.059529
vt 0.010588 0.940471
vt 0.951322 0.048678
vt 0.003546 0.946809
vt 0.996454 0.946809
vt 0.996454 0.996454
vt 0.003546 0.996454
vt 0.003546 0.996454
vt 0.996454 0.996454
vt 0.048678 0.048678
vt 0.003546 0.003546
vt 0.996454 0.003546
vt 0.996454 0.053191
vt 0.003546 0.053191
vt 0.048678 0.951322
vt 0.003546 0.996454
vt 0.996454 0.996454
vt 0.996454 0.946809
vt 0.003546 0.946809
vt 0.951322 0.951322
vt 0.048678 0.048678
vt 0.989412 0.010589
vt 0.965459 0.313062
vt 0.500000 0.010589
vt 0.034542 0.313062
vt 0.010588 0.010589
vt 0.951322 0.048678
vt 0.960463 0.929633
vt 0.869846 0.930487
vt 0.866295 0.068536
vt 0.956770 0.067682
vt 0.043230 0.067596
vt 0.133722 0.068454
vt 0.130138 0.930405
vt 0.039539 0.929547
vt 0.895943 0.585926
vt 0.104057 0.585927
vt 0.500000 0.010589
vt 0.965459 0.313062
vt 0.989412 0.010589
vt 0.010588 0.010589
vt 0.034542 0.313062
vt 0.804260 0.155256
vt 0.775594 0.155498
vt 0.775291 0.069303
vt 0.778338 0.931254
vt 0.778031 0.845058
vt 0.806883 0.844817
vt 0.224743 0.069233
vt 0.221630 0.931184
vt 0.787669 0.802474
vt 0.212331 0.802474
vt 0.895943 0.585928
vt 0.104057 0.585926
vt 0.612808 0.111236
vt 0.838423 0.111236
vt 0.838423 0.111236
vt 0.612808 0.111236
vt 0.048769 0.951231
vt 0.226771 0.951231
vt 0.517785 0.848595
vt 0.878335 0.599028
vt 0.951231 0.500000
vt 0.048769 0.500000
vt 0.683827 0.069906
vt 0.684046 0.156101
vt 0.686044 0.931857
vt 0.685820 0.845662
vt 0.951231 0.500000
vt 0.878335 0.599028
vt 0.517785 0.848595
vt 0.226772 0.951231
vt 0.048769 0.951231
vt 0.048769 0.500000
vt 0.316221 0.069856
vt 0.313910 0.931806
vt 0.651237 0.941505
vt 0.348764 0.941506
vt 0.787669 0.802474
vt 0.212331 0.802474
vt 0.951231 0.048769
vt 0.048769 0.048769
vt 0.048769 0.048769
vt 0.951231 0.048769
vt 0.951231 0.951231
vt 0.048769 0.951231
vt 0.951231 0.951231
vt 0.951231 0.500000
vt 0.951231 0.951231
vt 0.951227 0.048769
vt 0.048769 0.048769
vt 0.592020 0.070288
vt 0.625134 0.156346
vt 0.626389 0.845906
vt 0.593164 0.932239
vt 0.408036 0.070261
vt 0.406781 0.932212
vt 0.500000 0.989412
vt 0.651237 0.941505
vt 0.348763 0.941505
vt 0.951231 0.048769
vt 0.500030 0.070410
vt 0.499971 0.932361
vt 0.500000 0.989412
vt 0.815862 0.048769
vt 0.951231 0.048769
vt 0.951231 0.177692
vt 0.815862 0.177692
vt 0.184138 0.048769
vt 0.048769 0.048769
vt 0.048769 0.229261
vt 0.184138 0.229261
vt 0.387192 0.725615
vt 0.612808 0.725615
vt 0.612808 0.951231
vt 0.387192 0.951231
vt 0.048769 0.048769
vt 0.184138 0.048769
vt 0.184138 0.229261
vt 0.048769 0.229261
vt 0.387192 0.274385
vt 0.612808 0.274385
vt 0.612808 0.500000
vt 0.387192 0.500000
vt 0.815862 0.177692
vt 0.951231 0.177692
vt 0.951231 0.048769
vt 0.815862 0.048769
vt 0.815862 0.048769
vt 0.951231 0.048769
vt 0.951231 0.177692
vt 0.815862 0.177692
vt 0.951231 0.048769
vt 0.815862 0.229261
vt 0.951231 0.229261
vt 0.387192 0.725615
vt 0.612808 0.725615
vt 0.612808 0.951231
vt 0.387192 0.951231
vt 0.815862 0.048769
vt 0.951231 0.048769
vt 0.951231 0.229261
vt 0.815862 0.229261
vt 0.387192 0.274385
vt 0.612808 0.274385
vt 0.612808 0.500000
vt 0.387192 0.500000
vt 0.815862 0.177692
vt 0.951231 0.177692
vt 0.815862 0.048769
vt 0.048769 0.048769
vt 0.184138 0.048769
vt 0.184138 0.177692
vt 0.048769 0.177692
vt 0.951231 0.048769
vt 0.815862 0.048769
vt 0.815862 0.229261
vt 0.951231 0.229261
vt 0.387192 0.725615
vt 0.612808 0.725615
vt 0.612808 0.951231
vt 0.387192 0.951231
vt 0.815862 0.048769
vt 0.951231 0.048769
vt 0.951231 0.229261
vt 0.815862 0.229261
vt 0.387192 0.274385
vt 0.612808 0.274385
vt 0.612808 0.500000
vt 0.387192 0.500000
vt 0.048769 0.177692
vt 0.184138 0.177692
vt 0.184138 0.048769
vt 0.048769 0.048769
vt 0.048769 0.048769
vt 0.184138 0.048769
vt 0.184138 0.177692
vt 0.048769 0.177692
vt 0.184138 0.048769
vt 0.048769 0.229261
vt 0.184138 0.229261
vt 0.387192 0.725615
vt 0.612808 0.725615
vt 0.612808 0.951231
vt 0.387192 0.951231
vt 0.048769 0.048769
vt 0.184138 0.048769
vt 0.184138 0.229261
vt 0.048769 0.229261
vt 0.387192 0.274385
vt 0.612808 0.274385
vt 0.612808 0.500000
vt 0.387192 0.500000
vt 0.048769 0.177692
vt 0.184138 0.177692
vt 0.048769 0.048769
vt 0.996454 0.003546
vt 0.003546 0.003546
vt 0.003546 0.996454
vt 0.048678 0.951322
vt 0.996454 0.996454
vt 0.951322 0.951322
vt 0.003546 0.003546
vt 0.996454 0.003546
vt 0.951322 0.048678
vt 0.500000 0.048678
vt 0.048678 0.048678
vt 0.048678 0.951322
vt 0.003546 0.996454
vt 0.951322 0.951322
vt 0.996454 0.996454
vt 0.500000 0.951322
vt 0.003546 0.946809
vt 0.996454 0.946809
vt 0.996454 0.996454
vt 0.003546 0.996454
vt 0.996454 0.946809
vt 0.003546 0.946809
vt 0.003546 0.996454
vt 0.996454 0.996454
vn 0.000000 -1.000000 0.000000
vn 0.000000 -1.000000 0.000000
vn 0.000000 -1.000000 0.000000
vn 0.000000 -1.000000 0.000000
vn 0.000000 0.000000 1.000000
vn 0.000000 0.000000 1.000000
vn 0.000000 0.000000 1.000000
vn 0.000000 0.000000 1.000000
vn -1.000000 0.000000 0.000000
vn -1.000000 0.000000 0.000000
vn -1.000000 0.000000 0.000000
vn -1.000000 0.000000 0.000000
vn 0.000000 -1.000000 0.000000
vn 0.000000 -1.000000 0.000000
vn 0.000000 -1.000000 0.000000
vn 0.000000 -1.000000 0.000000
vn 1.000000 0.000000 0.000000
vn 1.000000 0.000000 0.000000
vn 1.000000 0.000000 0.000000
vn 1.000000 0.000000 0.000000
vn 0.000000 1.000000 -0.000000
vn 0.000000 1.000000 -0.000000
vn 0.000000 1.000000 -0.000000
vn 0.000000 1.000000 -0.000000
vn 0.000000 1.000000 -0.000000
vn 0.000000 1.000000 -0.000000
vn 0.000000 1.000000 0.000000
vn 0.000000 1.000000 0.000000
vn 0.000000 0.000000 -1.000000
vn 0.000000 0.000000 -1.000000
vn 0.000000 0.000000 -1.000000
vn 0.000000 0.000000 -1.000000
vn 0.000000 0.000000 1.000000
vn 0.000000 0.000000 1.000000
vn 0.000000 0.000000 1.000000
vn 0.000000 0.000000 1.000000
vn 1.000000 -0.000000 0.000000
vn 1.000000 -0.000000 0.000000
vn 1.000000 -0.000000 0.000000
vn 1.000000 -0.000000 0.000000
vn 0.000000 -1.000000 -0.000000
vn 0.000000 -1.000000 -0.000000
vn 0.000000 -1.000000 -0.000000
vn 0.000000 -1.000000 -0.000000
vn 0.000000 -1.000000 -0.000000
vn 0.000000 -1.000000 -0.000000
vn -1.000000 0.000000 0.000000
vn -1.000000 0.000000 0.000000
vn -1.000000 0.000000 0.000000
vn -1.000000 0.000000 0.000000
vn 0.000000 0.000000 -1.000000
vn 0.000000 0.000000 -1.000000
vn 0.000000 0.000000 -1.000000
vn 0.000000 0.000000 -1.000000
vn 0.000000 -1.000000 0.000000
vn 0.000000 -1.000000 0.000000
vn 0.000000 0.000000 1.000000
vn 0.000000 0.000000 1.000000
vn 0.000000 0.000000 1.000000
vn 0.000000 0.000000 1.000000
vn 1.000000 0.000000 0.000000
vn 1.000000 0.000000 0.000000
vn 1.000000 0.000000 0.000000
vn 1.000000 0.000000 0.000000
vn -1.000000 0.000000 0.000000
vn -1.000000 0.000000 0.000000
vn -1.000000 0.000000 0.000000
vn -1.000000 0.000000 0.000000
vn 0.000000 1.000000 0.000000
vn 0.000000 1.000000 0.000000
vn 0.000000 1.000000 0.000000
vn 0.000000 1.000000 0.000000
vn 0.000000 1.000000 0.000000
vn 0.000000 1.000000 0.000000
vn 0.000000 1.000000 0.000000
vn 0.000000 0.000000 -1.000000
vn 0.000000 0.000000 -1.000000
vn 0.000000 0.000000 -1.000000
vn 0.000000 0.000000 -1.000000
vn 0.000000 1.000000 0.000001
vn 0.000000 1.000000 0.000001
vn 0.000000 1.000000 0.000001
vn 0.000000 0.000000 1.000000
vn 0.000000 0.000000 1.000000
vn 0.000000 0.000000 1.000000
vn 0.000000 0.000000 1.000000
vn 0.000000 0.000000 1.000000
vn 0.987689 0.156434 0.000000
vn 0.957861 0.287233 0.000000
vn 0.957861 0.287233 0.000000
vn 0.987689 0.156434 0.000000
vn -0.987688 0.156434 0.000000
vn -0.951057 0.309017 -0.000000
vn -0.951057 0.309017 -0.000000
vn -0.987688 0.156434 0.000000
vn 0.000000 0.000000 1.000000
vn 0.000000 0.000000 1.000000
vn 0.000000 0.000000 -1.000000
vn 0.000000 0.000000 -1.000000
vn 0.000000 0.000000 -1.000000
vn 0.000000 0.000000 -1.000000
vn 0.000000 0.000000 -1.000000
vn 0.891007 0.453990 0.000000
vn 0.873782 0.486318 0.000000
vn 0.873782 0.486318 0.000000
vn 0.873782 0.486319 0.000000
vn 0.873782 0.486318 0.000000
vn 0.891007 0.453990 0.000000
vn -0.809017 0.587785 -0.000000
vn -0.809017 0.587785 -0.000000
vn 0.000000 0.000000 1.000000
vn 0.000000 0.000000 1.000000
vn 0.000000 0.000000 -1.000000
vn 0.000000 0.000000 -1.000000
vn -1.000000 -0.000000 -0.000000
vn -1.000000 -0.000000 -0.000000
vn -1.000000 -0.000000 -0.000000
vn -1.000000 -0.000000 -0.000000
vn 0.000000 0.000000 -1.000000
vn 0.000000 0.000000 -1.000000
vn 0.000000 0.000000 -1.000000
vn 0.000000 0.000000 -1.000000
vn 0.000000 0.000000 -1.000000
vn 0.000000 0.000000 -1.000000
vn 0.500541 0.865713 0.000000
vn 0.500541 0.865713 0.000000
vn 0.500541 0.865713 0.000000
vn 0.500541 0.865713 0.000000
vn 0.000000 0.000000 1.000000
vn 0.000000 0.000000 1.000000
vn 0.000000 0.000000 1.000000
vn 0.000000 0.000000 1.000000
vn 0.000000 0.000000 1.000000
vn 0.000000 0.000000 1.000000
vn -0.587786 0.809016 -0.000000
vn -0.587786 0.809016 -0.000000
vn 0.000000 0.000000 1.000000
vn 0.000000 0.000000 1.000000
vn 0.000000 0.000000 -1.000000
vn 0.000000 0.000000 -1.000000
vn 0.000000 -0.000000 -1.000000
vn 0.000000 -0.000000 -1.000000
vn 0.000000 -0.000000 -1.000000
vn 0.000000 -0.000000 -1.000000
vn 0.000000 0.000000 1.000000
vn 0.000000 0.000000 1.000000
vn 0.000000 0.000000 1.000000
vn 0.000000 0.000000 1.000000
vn 0.000000 1.000000 -0.000000
vn 0.000000 1.000000 -0.000000
vn 0.000000 1.000000 -0.000000
vn 0.000000 1.000000 -0.000000
vn 1.000000 0.000000 0.000000
vn 1.000000 0.000000 0.000000
vn 1.000000 0.000000 0.000000
vn 1.000000 0.000000 0.000000
vn 0.000000 -1.000000 0.000000
vn 0.000000 -1.000000 0.000000
vn 0.000000 -1.000000 0.000000
vn 0.000000 -1.000000 0.000000
vn 0.256745 0.966479 0.000000
vn 0.453990 0.891007 0.000000
vn 0.453990 0.891007 0.000000
vn 0.256745 0.966479 0.000000
vn -0.309017 0.951057 -0.000000
vn -0.309017 0.951057 -0.000000
vn 0.000000 0.000000 1.000000
vn 0.000000 0.000000 -1.000000
vn 0.000000 0.000000 -1.000000
vn 1.000000 0.000000 0.000000
vn 1.000000 0.000000 0.000000
vn 1.000000 0.000000 0.000000
vn 1.000000 0.000000 0.000000
vn 0.000001 1.000000 -0.000000
vn 0.000001 1.000000 -0.000000
vn 0.000000 0.000000 -1.000000
vn 0.000000 0.000000 1.000000
vn 0.000000 0.000000 1.000000
vn 0.000000 0.000000 1.000000
vn 0.000000 0.000000 1.000000
vn -1.000000 0.000000 0.000000
vn -1.000000 0.000000 0.000000
vn -1.000000 0.000000 0.000000
vn -1.000000 0.000000 0.000000
vn 0.000000 -1.000000 0.000000
vn 0.000000 -1.000000 0.000000
vn 0.000000 -1.000000 0.000000
vn 0.000000 -1.000000 0.000000
vn 1.000000 0.000000 0.000000
vn 1.000000 0.000000 0.000000
vn 1.000000 0.000000 0.000000
vn 1.000000 0.000000 0.000000
vn 0.000000 1.000000 0.000000
vn 0.000000 1.000000 0.000000
vn 0.000000 1.000000 0.000000
vn 0.000000 1.000000 0.000000
vn 0.000000 0.000000 -1.000000
vn 0.000000 0.000000 -1.000000
vn 0.000000 0.000000 -1.000000
vn 0.000000 0.000000 -1.000000
vn 0.000000 0.000000 1.000000
vn 0.000000 0.000000 1.000000
vn 0.000000 0.000000 1.000000
vn 0.000000 0.000000 1.000000
vn -1.000000 0.000000 0.000000
vn -1.000000 0.000000 0.000000
vn -1.000000 0.000000 0.000000
vn -1.000000 0.000000 0.000000
vn 0.000000 -1.000000 0.000000
vn 0.000000 -1.000000 0.000000
vn 0.000000 -1.000000 0.000000
vn 0.000000 -1.000000 0.000000
vn 1.000000 0.000000 0.000000
vn 1.000000 0.000000 0.000000
vn 1.000000 0.000000 0.000000
vn 1.000000 0.000000 0.000000
vn 0.000000 1.000000 0.000000
vn 0.000000 1.000000 0.000000
vn 0.000000 1.000000 0.000000
vn 0.000000 1.000000 0.000000
vn 0.000000 0.000000 -1.000000
vn 0.000000 0.000000 -1.000000
vn 0.000000 0.000000 -1.000000
vn 0.000000 0.000000 -1.000000
vn 0.000000 0.000000 1.000000
vn 0.000000 0.000000 1.000000
vn 0.000000 0.000000 1.000000
vn 0.000000 0.000000 1.000000
vn -1.000000 0.000000 0.000000
vn -1.000000 0.000000 0.000000
vn -1.000000 0.000000 0.000000
vn -1.000000 0.000000 0.000000
vn 0.000000 -1.000000 0.000000
vn 0.000000 -1.000000 0.000000
vn 0.000000 -1.000000 0.000000
vn 0.000000 -1.000000 0.000000
vn 1.000000 0.000000 0.000000
vn 1.000000 0.000000 0.000000
vn 1.000000 0.000000 0.000000
vn 1.000000 0.000000 0.000000
vn 0.000000 1.000000 0.000000
vn 0.000000 1.000000 0.000000
vn 0.000000 1.000000 0.000000
vn 0.000000 1.000000 0.000000
vn 0.000000 0.000000 -1.000000
vn 0.000000 0.000000 -1.000000
vn 0.000000 0.000000 -1.000000
vn 0.000000 0.000000 -1.000000
vn 0.000000 0.000000 1.000000
vn 0.000000 0.000000 1.000000
vn 0.000000 0.000000 1.000000
vn 0.000000 0.000000 1.000000
vn -1.000000 0.000000 0.000000
vn -1.000000 0.000000 0.000000
vn -1.000000 0.000000 0.000000
vn -1.000000 0.000000 0.000000
vn 0.000000 -1.000000 0.000000
vn 0.000000 -1.000000 0.000000
vn 0.000000 -1.000000 0.000000
vn 0.000000 -1.000000 0.000000
vn 1.000000 0.000000 0.000000
vn 1.000000 0.000000 0.000000
vn 1.000000 0.000000 0.000000
vn 1.000000 0.000000 0.000000
vn 0.000000 1.000000 0.000000
vn 0.000000 1.000000 0.000000
vn 0.000000 1.000000 0.000000
vn 0.000000 1.000000 0.000000
vn 0.000000 0.000000 -1.000000
vn 0.000000 0.000000 -1.000000
vn 0.000000 0.000000 -1.000000
vn 0.000000 0.000000 -1.000000
s 1
g pCube10
usemtl anisotropic2SG
f 1/1/1 2/2/2 3/3/3 4/4/4
s off
f 5/5/5 6/6/6 7/7/7 8/8/8
f 9/9/9 5/10/10 8/15/11 10/16/12
s 1
f 3/13/3 2/14/2 1/19/1 9/20/13 11/21/14 6/22/15
f 9/20/13 1/19/1 4/31/4 3/13/3 6/22/15 5/32/16
s off
f 6/47/17 11/48/18 12/49/19 7/50/20
s 2
f 7/33/21 12/34/22 10/39/23 13/46/24 14/51/25 15/52/26
f 8/53/27 7/33/21 15/52/26 16/56/28 13/46/24 10/39/23
s off
f 10/11/29 12/12/30 11/17/31 9/18/32
usemtl anisotropic1SG
f 15/23/33 17/24/34 18/25/35 16/26/36
f 14/27/37 19/28/38 17/29/39 15/30/40
s 3
usemtl anisotropic2SG
f 18/57/41 17/63/42 21/233/43 20/234/44 26/235/45 22/236/46
s off
usemtl anisotropic1SG
f 16/26/47 18/25/48 22/35/49 13/36/50
f 13/37/51 22/38/52 19/28/53 14/27/54
s 3
usemtl anisotropic2SG
f 23/237/55 21/233/43 17/63/42 19/238/56 22/236/46 26/235/45
s off
f 20/40/57 21/41/58 24/42/59 25/43/60
f 21/249/61 23/250/62 27/251/63 24/252/64
f 26/253/65 20/254/66 25/255/67 28/256/68
s 4
f 25/239/69 24/240/70 29/241/71 30/242/72 31/243/73 33/244/74 28/245/75
s off
f 28/44/76 27/45/77 23/54/78 26/55/79
s 4
f 32/246/80 29/241/71 24/240/70 27/247/81 28/245/75 33/244/74 36/248/82
s 5
usemtl anisotropic1SG
f 29/58/83 34/59/84 30/60/85
f 35/61/86 31/62/87 30/60/85
s 7
f 32/64/88 37/65/89 34/66/90 29/67/91
f 31/68/92 35/69/93 38/70/94 33/71/95
s 5
f 34/59/84 39/72/96 30/60/85
f 40/73/97 35/61/86 30/60/85
s 9
f 36/74/98 37/75/99 32/76/100
f 33/77/101 38/78/102 36/74/98
s 7
f 41/79/103 42/80/104 39/81/105 34/66/90 37/65/89 43/82/106 44/83/107 45/84/108
f 35/69/93 40/85/109 46/86/110 38/70/94
s 5
f 39/72/96 47/87/111 30/60/85
f 48/88/112 40/73/97 30/60/85
s 9
f 43/89/113 37/75/99 36/74/98
f 38/78/102 46/90/114 36/74/98
s off
usemtl anisotropic3SG
f 41/91/115 45/92/116 49/93/117 50/94/118
f 51/95/119 52/96/120 53/97/121 42/98/122 41/99/123 54/100/124
s 7
usemtl anisotropic1SG
f 47/101/125 39/81/105 42/80/104 53/102/126
f 44/83/107 43/82/106 55/103/127 56/104/128
s off
usemtl anisotropic3SG
f 45/105/129 44/106/130 56/107/131 57/108/132 58/109/133 59/110/134
s 7
usemtl anisotropic1SG
f 40/85/109 48/111/135 60/112/136 46/86/110
s 5
f 47/87/111 61/113/137 30/60/85
f 62/114/138 48/88/112 30/60/85
s 9
f 55/115/139 43/89/113 36/74/98
f 46/90/114 60/116/140 36/74/98
s off
usemtl anisotropic3SG
f 54/100/141 41/99/142 50/117/143 63/118/144
f 45/105/145 59/110/146 64/119/147 49/120/148
f 50/117/149 49/121/150 64/122/151 63/118/152
f 58/123/153 51/95/154 54/100/155 59/124/156
f 57/125/157 52/126/158 51/127/159 58/109/160
s 7
usemtl anisotropic1SG
f 61/128/161 47/101/125 53/102/126 52/129/162 57/130/163 56/104/128 55/103/127 65/131/164
f 48/111/135 62/132/165 66/133/166 60/112/136
s 5
f 61/113/137 67/134/167 30/60/85
f 67/134/167 62/114/138 30/60/85
s 9
f 65/135/168 55/115/139 36/74/98
f 60/116/140 66/136/169 36/74/98
s off
usemtl anisotropic3SG
f 59/124/170 54/100/171 63/118/172 64/137/173
s 7
usemtl anisotropic1SG
f 67/138/174 61/128/161 65/131/164 68/139/175
f 62/132/165 67/138/174 68/139/175 66/133/166
s 9
f 68/140/176 65/135/168 36/74/98
f 66/136/169 68/140/176 36/74/98
s off
f 69/141/177 70/142/178 71/143/179 72/144/180
f 73/145/181 69/146/182 72/147/183 74/148/184
f 73/149/185 75/150/186 70/151/187 69/152/188
f 70/153/189 75/154/190 76/155/191 71/156/192
usemtl initialShadingGroup
f 72/157/193 71/158/194 76/159/195 74/160/196
usemtl anisotropic1SG
f 74/161/197 76/162/198 75/163/199 73/164/200
f 77/165/201 78/166/202 79/167/203 80/168/204
f 81/169/205 77/165/206 80/170/207 82/171/208
f 81/172/209 83/173/210 78/174/211 77/175/212
f 78/176/213 83/177/214 84/178/215 79/179/216
usemtl initialShadingGroup
f 80/180/217 79/181/218 84/182/219 82/183/220
usemtl anisotropic1SG
f 82/184/221 84/185/222 83/177/223 81/186/224
f 85/187/225 86/188/226 87/189/227 88/190/228
f 89/191/229 85/192/230 88/193/231 90/194/232
f 89/195/233 91/196/234 86/197/235 85/198/236
f 86/199/237 91/200/238 92/201/239 87/202/240
usemtl initialShadingGroup
f 88/203/241 87/204/242 92/205/243 90/206/244
usemtl anisotropic1SG
f 90/207/245 92/208/246 91/209/247 89/210/248
f 93/211/249 94/212/250 95/213/251 96/214/252
f 97/215/253 93/211/254 96/216/255 98/217/256
f 97/218/257 99/219/258 94/220/259 93/221/260
f 94/222/261 99/223/262 100/224/263 95/225/264
usemtl initialShadingGroup
f 96/226/265 95/227/266 100/228/267 98/229/268
usemtl anisotropic1SG
f 98/230/269 100/231/270 99/223/271 97/232/272
