# This file uses centimeters as units for non-parametric coordinates.

mtllib UV_TRI_SignMount_DTG.mtl
g default
v -0.200000 0.000000 0.000000
v 0.000000 0.000000 0.000000
v -0.200000 1.000000 0.000000
v 0.000000 1.000000 0.000000
v -0.200000 1.000000 -0.050000
v 0.000000 1.000000 -0.050000
v -0.200000 0.000000 -0.050000
v 0.000000 0.000000 -0.050000
vt 0.000000 0.000000
vt 1.000000 0.000000
vt 1.000000 1.000000
vt 0.000000 1.000000
vt 0.000000 1.000000
vt 1.000000 1.000000
vt 1.000000 0.000000
vt 0.000000 0.000000
vt 0.000000 -0.000000
vt 1.000000 -0.000000
vt -0.000000 0.000000
vt 1.000000 0.000000
vt 1.000000 1.000000
vt -0.000000 1.000000
vt 1.000000 0.000000
vt 0.000000 0.000000
vt 0.000000 1.000000
vt 1.000000 1.000000
vt 1.000000 1.000000
vt 0.000000 1.000000
vt 0.000000 1.000000
vt 1.000000 1.000000
vt 1.000000 0.000000
vt 0.000000 0.000000
vn 0.000000 0.000000 1.000000
vn 0.000000 0.000000 1.000000
vn 0.000000 0.000000 1.000000
vn 0.000000 0.000000 1.000000
vn 0.000000 1.000000 0.000000
vn 0.000000 1.000000 0.000000
vn 0.000000 1.000000 0.000000
vn 0.000000 1.000000 0.000000
vn 0.000000 0.000000 -1.000000
vn 0.000000 0.000000 -1.000000
vn 0.000000 0.000000 -1.000000
vn 0.000000 0.000000 -1.000000
vn 0.000000 -1.000000 0.000000
vn 0.000000 -1.000000 0.000000
vn 0.000000 -1.000000 0.000000
vn 0.000000 -1.000000 0.000000
vn 1.000000 0.000000 0.000000
vn 1.000000 0.000000 0.000000
vn 1.000000 0.000000 0.000000
vn 1.000000 0.000000 0.000000
vn -1.000000 0.000000 0.000000
vn -1.000000 0.000000 0.000000
vn -1.000000 0.000000 0.000000
vn -1.000000 0.000000 0.000000
s 1
g c_SignMount
usemtl anisotropic7SG
f 1/1/1 2/2/2 3/4/3
f 3/4/3 2/2/2 4/3/4
s 2
f 3/9/5 4/10/6 5/20/7
f 5/20/7 4/10/6 6/19/8
s 3
f 5/5/9 6/6/10 7/8/11
f 7/8/11 6/6/10 8/7/12
s 4
f 7/21/13 8/22/14 1/24/15
f 1/24/15 8/22/14 2/23/16
s 5
f 2/11/17 8/12/18 4/14/19
f 4/14/19 8/12/18 6/13/20
s 6
f 7/15/21 1/16/22 5/18/23
f 5/18/23 1/16/22 3/17/24
