# This file uses centimeters as units for non-parametric coordinates.

mtllib UV_TRI_StreetSign1_DTG.mtl
g default
v 0.100000 3.349999 0.100000
v 0.100000 3.599999 0.100000
v 0.100000 3.349999 2.000000
v 0.100000 3.599999 2.000000
v 0.195106 0.000000 -0.030902
v 0.180902 0.000000 -0.058779
v 0.180902 3.999999 -0.058779
v 0.195106 3.999999 -0.030902
v 0.200000 0.000000 0.000000
v 0.200000 3.999999 0.000000
v 0.200000 3.249999 0.000000
v 0.100000 0.000000 0.000000
v 0.158779 0.000000 -0.080902
v 0.158779 3.999999 -0.080902
v 0.100000 3.999999 0.000000
v 0.195106 0.000000 0.030902
v 0.195106 3.219097 0.030902
v 0.195106 3.999999 0.030902
v 0.195106 3.280901 0.030902
v 0.195106 3.280901 0.030901
v 0.130902 0.000000 -0.095106
v 0.130902 3.999999 -0.095106
v 0.180902 0.000000 0.058779
v 0.180902 3.191220 0.058779
v 0.180902 3.999999 0.058779
v 0.180902 3.308778 0.058779
v 0.180902 3.308778 0.058778
v 0.100000 0.000000 -0.100000
v 0.100000 3.999999 -0.100000
v 0.158779 0.000000 0.080902
v 0.163904 3.174222 0.075777
v 0.158779 3.170441 0.080902
v 0.158779 3.999999 0.080902
v 0.158779 3.329557 0.080902
v 0.163904 3.325775 0.075776
v 0.069098 0.000000 -0.095106
v 0.069098 3.999999 -0.095106
v 0.130902 0.000000 0.095106
v 0.156520 3.172206 0.082053
v 0.152290 3.165791 0.084208
v 0.130902 3.154893 0.095106
v 0.130902 3.999999 0.095106
v 0.130902 3.345105 0.095106
v 0.130902 3.345105 0.095106
v 0.152290 3.334206 0.084208
v 0.156520 3.327792 0.082053
v 0.041221 0.000000 -0.080902
v 0.041221 3.999999 -0.080902
v 0.100000 0.000000 0.100000
v 0.100000 3.149999 0.100000
v 0.100000 3.999999 0.100000
v 0.100000 3.349999 0.100000
v 0.019098 0.000000 -0.058779
v 0.019098 3.999999 -0.058779
v 0.069098 0.000000 0.095106
v 0.069098 3.154893 0.095106
v 0.069098 3.999999 0.095106
v 0.069098 3.345105 0.095106
v 0.004894 0.000000 -0.030902
v 0.004894 3.999999 -0.030902
v 0.041221 0.000000 0.080902
v 0.047710 3.165791 0.084208
v 0.043480 3.172206 0.082053
v 0.041221 3.170441 0.080902
v 0.041221 3.999999 0.080902
v 0.041221 3.329557 0.080902
v 0.043480 3.327792 0.082053
v 0.047710 3.334206 0.084208
v 0.000000 0.000000 0.000000
v 0.000000 3.249999 0.000000
v 0.000000 3.999999 0.000000
v 0.019098 0.000000 0.058779
v 0.036097 3.174222 0.075777
v 0.019098 3.191220 0.058779
v 0.019098 3.999999 0.058779
v 0.019098 3.308778 0.058779
v 0.036096 3.325776 0.075777
v 0.004894 0.000000 0.030902
v 0.004894 3.219097 0.030902
v 0.004894 3.280901 0.030902
v 0.004894 3.999999 0.030902
v 0.180902 3.308778 1.500000
v 0.195106 3.280901 1.500000
v 0.158779 3.330901 0.081335
v 0.158779 3.330901 1.500000
v 0.100000 3.249999 1.500000
v 0.200000 3.249999 1.500000
v 0.130902 3.345105 1.500000
v 0.195106 3.219097 1.500000
v 0.100000 3.349999 1.500000
v 0.180902 3.191220 1.500000
v 0.069098 3.345105 1.500000
v 0.158779 3.169097 1.500000
v 0.158779 3.169097 0.081335
v 0.041221 3.330901 0.081335
v 0.041221 3.330901 1.500000
v 0.130902 3.154893 1.500000
v 0.019098 3.308778 1.500000
v 0.100000 3.149999 1.500000
v 0.004894 3.280901 1.500000
v 0.069098 3.154893 1.500000
v 0.000000 3.249999 1.500000
v 0.041221 3.169097 1.500000
v 0.041221 3.169097 0.081335
v 0.004894 3.219097 1.500000
v 0.019098 3.191220 1.500000
v 0.097591 3.349999 2.000000
v 0.097591 3.599999 2.000000
v 0.097591 3.349999 0.100000
v 0.097591 3.599999 0.100000
vt 1.000000 0.000000
vt 1.000000 1.000000
vt -0.000000 1.000000
vt -0.000000 0.000000
vt 1.599834 0.000000
vt 1.699834 0.000000
vt 1.699834 1.000000
vt 1.599834 1.000000
vt 1.499833 0.000000
vt 1.499833 1.000000
vt 1.499901 0.967133
vt 0.904509 0.793893
vt 0.975529 0.654509
vt 0.500000 0.500000
vt 1.799834 0.000000
vt 1.799834 1.000000
vt 0.975529 0.654508
vt 0.904509 0.793892
vt 0.500000 0.499999
vt 1.399834 0.000000
vt 1.399834 0.843820
vt 1.000000 0.500000
vt 1.000000 0.499999
vt 1.399834 1.000000
vt 1.399866 0.960258
vt 1.399866 0.960258
vt 0.793893 0.904509
vt 1.899834 0.000000
vt 1.899834 1.000000
vt 0.793893 0.904508
vt 1.299834 0.000000
vt 1.299834 0.838244
vt 0.975528 0.345492
vt 0.975528 0.345491
vt 1.299834 1.000000
vt 1.299836 0.954055
vt 1.299836 0.954056
vt 0.654509 0.975529
vt 1.999833 0.000000
vt 1.999833 1.000000
vt 0.654509 0.975528
vt 1.199834 0.000000
vt 1.222841 0.834845
vt 1.199834 0.834088
vt 0.904509 0.206108
vt 0.904509 0.206107
vt 1.199834 1.000000
vt 1.200358 0.858989
vt 1.218815 0.948147
vt 0.500000 1.000000
vt -0.000167 0.000000
vt 0.099834 0.000000
vt 0.099834 1.000000
vt -0.000167 1.000000
vt 0.500000 1.000000
vt 1.099834 0.000000
vt 1.191833 0.834441
vt 1.176717 0.833158
vt 1.099834 0.830979
vt 0.793893 0.095492
vt 0.793893 0.095491
vt 1.099834 1.000000
vt 1.099802 0.945973
vt 1.099802 0.945973
vt 1.180634 0.946023
vt 1.195449 0.860801
vt 0.345492 0.975529
vt 0.199834 0.000000
vt 0.199834 1.000000
vt 0.345492 0.975528
vt 0.999834 0.000000
vt 0.999834 0.830000
vt 0.654509 0.024472
vt 0.654509 0.024471
vt 0.999834 1.000000
vt 0.999798 0.944884
vt 0.206107 0.904509
vt 0.299834 0.000000
vt 0.299834 1.000000
vt 0.206107 0.904508
vt 0.899834 0.000000
vt 0.899834 0.830979
vt 0.500000 0.000001
vt 0.500000 -0.000001
vt 0.899834 1.000000
vt 0.899802 0.945973
vt 0.095492 0.793893
vt 0.399834 0.000000
vt 0.399834 1.000000
vt 0.095492 0.793892
vt 0.799834 0.000000
vt 0.822950 0.833158
vt 0.807834 0.834441
vt 0.799834 0.834088
vt 0.345492 0.024472
vt 0.345492 0.024471
vt 0.799834 1.000000
vt 0.799271 0.858990
vt 0.804181 0.860801
vt 0.818976 0.946023
vt 0.024472 0.654509
vt 0.499834 0.000000
vt 0.499902 0.967136
vt 0.499834 1.000000
vt 0.024472 0.654508
vt 0.699834 0.000000
vt 0.776826 0.834845
vt 0.699834 0.838244
vt 0.206107 0.095492
vt 0.206107 0.095491
vt 0.699834 1.000000
vt 0.699837 0.954056
vt 0.780808 0.948148
vt 0.000000 0.500000
vt 0.599834 0.000000
vt 0.599834 0.843820
vt 0.599866 0.960260
vt 0.599834 1.000000
vt 0.000000 0.499999
vt 0.095492 0.206108
vt 0.095492 0.206107
vt 0.024472 0.345492
vt 0.024472 0.345491
vt 1.300090 0.026216
vt 1.400023 0.026215
vt 1.199841 0.941047
vt 1.200143 0.026216
vt 0.975529 0.654509
vt 0.904509 0.793894
vt 0.500000 0.500000
vt 1.499950 0.026213
vt 1.100177 0.026217
vt 0.793893 0.904509
vt 1.000000 0.500000
vt 1.599877 0.026211
vt 1.600040 0.973795
vt 1.000188 0.026217
vt 0.654509 0.975529
vt 0.975528 0.345490
vt 1.699810 0.026208
vt 1.700099 0.955812
vt 0.900177 0.026217
vt 0.500000 1.000000
vt 0.904509 0.206104
vt 1.799757 0.026204
vt 1.800141 0.941259
vt 1.777126 0.944845
vt 0.799751 0.941048
vt 0.800143 0.026217
vt 0.345492 0.975529
vt 0.793893 0.095491
vt 1.823267 0.939405
vt 1.899723 0.026200
vt 1.900167 0.932373
vt 0.599849 0.274651
vt 0.591841 0.282659
vt 0.588312 0.277561
vt 0.591841 0.280500
vt 0.700091 0.026218
vt 0.206107 0.904509
vt 0.654509 0.024471
vt 0.581704 0.287824
vt 1.999711 0.026196
vt 2.000175 0.929212
vt 0.600024 0.026219
vt 0.095492 0.793894
vt 0.500000 0.000000
vt 2.099723 0.026192
vt 2.100167 0.932365
vt 0.499950 0.026220
vt 0.024472 0.654509
vt 0.345492 0.024471
vt 0.100166 0.932406
vt 0.099723 0.026233
vt 0.199757 0.026229
vt 0.200141 0.941284
vt 0.177034 0.939432
vt 0.400039 0.973808
vt 0.399875 0.026223
vt 0.000000 0.500000
vt 0.206107 0.095491
vt 0.223142 0.944868
vt 0.299809 0.026226
vt 0.300097 0.955830
vt 0.418296 0.287824
vt 0.408159 0.282659
vt 0.411688 0.277561
vt 0.024472 0.345490
vt 0.095492 0.206104
vt 0.400151 0.274651
vt 0.408159 0.280500
vt -0.000000 0.000000
vt -0.000000 1.000000
vt 1.000000 1.000000
vt 1.000000 0.000000
vn 1.000000 -0.000000 -0.000000
vn 1.000000 -0.000000 -0.000000
vn 1.000000 -0.000000 -0.000000
vn 1.000000 -0.000000 -0.000000
vn 0.951057 0.000000 -0.309016
vn 0.809017 0.000000 -0.587785
vn 0.809017 0.000000 -0.587785
vn 0.951057 0.000000 -0.309016
vn 0.999860 -0.000000 -0.016754
vn 0.994087 0.000000 -0.108591
vn 0.996602 -0.000000 -0.082370
vn 0.000000 -1.000000 0.000001
vn 0.000000 -1.000000 -0.000002
vn 0.000000 -1.000000 0.000000
vn 0.587785 0.000000 -0.809017
vn 0.587785 0.000000 -0.809017
vn 0.000000 1.000000 0.000000
vn 0.000000 1.000000 0.000000
vn 0.000000 1.000000 -0.000001
vn 0.951280 0.000000 0.308329
vn 0.983539 -0.075032 0.164383
vn 0.000000 -1.000000 -0.000000
vn 0.000000 1.000000 0.000000
vn 0.952051 0.000000 0.305940
vn 0.945855 0.311845 0.090065
vn 0.991496 0.120076 0.050183
vn 0.000000 -1.000000 0.000001
vn 0.309017 0.000000 -0.951057
vn 0.309017 0.000000 -0.951057
vn 0.000000 1.000000 0.000000
vn 0.809379 0.000000 0.587287
vn 0.845914 0.000000 0.533319
vn 0.000000 -1.000000 0.000002
vn 0.000000 1.000000 0.000000
vn 0.810683 -0.000000 0.585485
vn 0.832555 -0.000000 0.553943
vn 0.891007 0.000000 0.453990
vn 0.000000 -1.000000 0.000000
vn 0.000000 0.000000 -1.000000
vn 0.000000 0.000000 -1.000000
vn 0.000000 1.000000 0.000000
vn 0.588144 0.000000 0.808756
vn 0.707107 0.000000 0.707107
vn 0.584279 0.000000 0.811553
vn 0.000000 -1.000000 0.000000
vn 0.000000 1.000000 0.000000
vn 0.589480 -0.000000 0.807783
vn 0.585621 -0.000000 0.810585
vn 0.707107 -0.000000 0.707107
vn 0.000000 -1.000000 0.000000
vn -0.309017 0.000000 -0.951056
vn -0.309017 0.000000 -0.951056
vn 0.000000 1.000000 0.000000
vn 0.309258 -0.000000 0.950978
vn 0.453991 0.000000 0.891006
vn 0.453991 0.000000 0.891006
vn 0.334788 -0.000000 0.942293
vn 0.000000 -1.000000 0.000000
vn 0.000000 1.000000 0.000000
vn 0.310174 0.000000 0.950680
vn 0.317983 0.000000 0.948096
vn 0.453991 0.000000 0.891007
vn 0.453991 0.000000 0.891006
vn 0.453991 0.000000 0.891007
vn 0.000000 -1.000000 0.000000
vn -0.587786 0.000000 -0.809017
vn -0.587786 0.000000 -0.809017
vn 0.000000 1.000000 0.000005
vn 0.000000 -0.000000 1.000000
vn 0.000000 -0.000000 1.000000
vn 0.000000 -1.000000 0.000000
vn 0.000000 1.000000 -0.000005
vn 0.000000 0.000000 1.000000
vn 0.000000 0.000000 1.000000
vn 0.000000 -1.000000 0.000000
vn -0.809017 0.000000 -0.587785
vn -0.809017 0.000000 -0.587785
vn 0.000000 1.000000 -0.000005
vn -0.309258 -0.000000 0.950978
vn -0.334788 -0.000000 0.942294
vn 0.000000 -1.000000 -0.000000
vn 0.000000 1.000000 -0.000005
vn -0.310174 0.000000 0.950680
vn -0.335667 0.000000 0.941981
vn 0.000000 -1.000000 0.000000
vn -0.951057 0.000000 -0.309017
vn -0.951057 0.000000 -0.309017
vn 0.000000 1.000000 -0.000010
vn -0.588144 -0.000000 0.808756
vn -0.453991 -0.000000 0.891006
vn -0.453991 -0.000000 0.891006
vn -0.584279 -0.000000 0.811553
vn 0.000000 -1.000000 -0.000000
vn 0.000000 1.000000 0.000000
vn -0.589479 0.000000 0.807783
vn -0.585618 0.000000 0.810588
vn -0.453991 0.000000 0.891006
vn -0.453991 0.000000 0.891006
vn 0.000000 -1.000000 -0.000002
vn -0.999860 0.000000 -0.016755
vn -0.996602 -0.000000 -0.082371
vn -0.994086 0.000000 -0.108593
vn 0.000000 1.000000 0.000000
vn -0.809379 0.000000 0.587287
vn -0.707107 -0.000000 0.707107
vn -0.845914 0.000000 0.533319
vn 0.000000 -1.000000 0.000000
vn 0.000000 1.000000 0.000000
vn -0.810683 0.000000 0.585485
vn -0.846884 0.000000 0.531778
vn -0.707107 0.000000 0.707107
vn 0.000000 -1.000000 0.000000
vn -0.951280 0.000000 0.308329
vn -0.983539 -0.075032 0.164383
vn -0.983966 0.160182 0.078432
vn -0.952051 0.000000 0.305940
vn 0.000000 1.000000 0.000000
vn 0.000000 -1.000000 0.000000
vn 0.000000 1.000000 0.000000
vn 0.000000 -1.000000 0.000002
vn 0.000000 1.000000 0.000000
vn 0.865775 0.500434 -0.000000
vn 0.809823 0.586675 -0.000000
vn 0.951545 0.307509 -0.000000
vn 0.707101 0.707112 -0.000000
vn 0.626372 0.779524 -0.000000
vn 0.588601 0.808424 0.000000
vn 0.707101 0.707112 -0.000000
vn 0.000000 0.000000 1.000000
vn 0.000000 0.000000 1.000000
vn 0.000000 0.000000 1.000000
vn 1.000000 -0.000001 0.000000
vn -0.452147 0.124724 -0.883180
vn -0.587109 0.248737 -0.770346
vn -0.587109 0.248737 -0.770346
vn -0.400581 0.080470 -0.912721
vn 0.349551 0.936918 0.000000
vn 0.309525 0.950891 0.000000
vn 0.453992 0.891006 0.000000
vn 0.000000 0.000000 1.000000
vn 0.000000 0.000000 1.000000
vn 0.951545 -0.307510 0.000000
vn -0.377735 0.061308 -0.923882
vn 0.000000 1.000000 0.000000
vn -0.000000 1.000000 0.000000
vn 0.156432 0.987689 0.000000
vn 0.000000 0.000000 1.000000
vn 0.000000 0.000000 1.000000
vn 0.809823 -0.586675 0.000000
vn 0.846247 -0.532791 0.000000
vn -0.335044 0.942202 0.000000
vn -0.309525 0.950891 0.000000
vn 0.000000 0.000000 1.000000
vn 0.000000 0.000000 1.000000
vn 0.588601 -0.808424 0.000000
vn 0.626372 -0.779524 0.000000
vn 0.707102 -0.707112 0.000000
vn -0.453992 0.891006 0.000000
vn -0.626372 0.779524 0.000000
vn -0.588601 0.808424 0.000000
vn 0.000000 0.000000 1.000000
vn 0.000000 0.000000 1.000000
vn 0.453992 -0.891006 0.000000
vn 0.309525 -0.950891 0.000000
vn 0.335045 -0.942202 0.000000
vn -0.586743 -0.248657 -0.770651
vn -0.452008 -0.124697 -0.883255
vn -0.400525 -0.080455 -0.912747
vn -0.586743 -0.248657 -0.770651
vn 0.400564 0.080462 -0.912729
vn 0.452038 0.124703 -0.883239
vn 0.377766 0.061311 -0.923869
vn -0.846247 0.532791 0.000000
vn -0.809823 0.586674 0.000000
vn -0.707102 0.707112 0.000000
vn 0.000000 0.000000 1.000000
vn 0.000000 0.000000 1.000000
vn -0.377722 -0.061304 -0.923887
vn 0.000000 -1.000000 0.000000
vn 0.000000 -1.000000 0.000000
vn 0.586746 0.248661 -0.770648
vn 0.586746 0.248661 -0.770648
vn -0.951545 0.307509 0.000000
vn 0.000000 0.000000 1.000000
vn 0.000000 0.000000 1.000000
vn -0.309525 -0.950891 0.000000
vn -0.335045 -0.942202 0.000000
vn -1.000000 -0.000000 0.000000
vn 0.000000 0.000000 1.000000
vn 0.000000 0.000000 1.000000
vn -0.588601 -0.808424 0.000000
vn -0.626372 -0.779524 0.000000
vn -0.453992 -0.891006 0.000000
vn -0.951545 -0.307510 0.000000
vn 0.000000 0.000000 1.000000
vn 0.000000 0.000000 1.000000
vn -0.707102 -0.707112 0.000000
vn -0.809823 -0.586675 0.000000
vn -0.846247 -0.532792 0.000000
vn 0.377719 -0.061301 -0.923889
vn 0.452002 -0.124687 -0.883260
vn 0.400521 -0.080450 -0.912749
vn 0.000000 0.000000 1.000000
vn 0.000000 0.000000 1.000000
vn 0.586742 -0.248645 -0.770655
vn 0.586742 -0.248645 -0.770655
vn -1.000000 0.000000 0.000000
vn -1.000000 0.000000 0.000000
vn -1.000000 0.000000 0.000000
vn -1.000000 0.000000 0.000000
s off
g pPlane2
usemtl anisotropic8SG
f 1/1/1 2/2/2 4/3/3 3/4/4
s 1
usemtl anisotropic7SG
f 5/5/5 6/6/6 7/7/7 8/8/8
f 9/9/9 5/5/5 8/8/8 10/10/10 11/11/11
s 2
f 6/12/12 5/13/13 12/14/14
s 1
f 6/6/6 13/15/15 14/16/16 7/7/7
s 3
f 8/17/17 7/18/18 15/19/19
s 1
f 16/20/20 9/9/9 11/11/11 17/21/21
s 2
f 5/13/13 9/22/22 12/14/14
s 3
f 10/23/23 8/17/17 15/19/19
s 1
f 11/11/11 10/10/10 18/24/24 19/25/25 20/26/26
s 2
f 13/27/27 6/12/12 12/14/14
s 1
f 13/15/15 21/28/28 22/29/29 14/16/16
s 3
f 7/18/18 14/30/30 15/19/19
s 1
f 23/31/31 16/20/20 17/21/21 24/32/32
s 2
f 9/22/22 16/33/33 12/14/14
s 3
f 18/34/34 10/23/23 15/19/19
s 1
f 19/25/25 18/24/24 25/35/35 26/36/36 27/37/37
s 2
f 21/38/38 13/27/27 12/14/14
s 1
f 21/28/28 28/39/39 29/40/40 22/29/29
s 3
f 14/30/30 22/41/41 15/19/19
s 1
f 30/42/42 23/31/31 24/32/32 31/43/43 32/44/44
s 2
f 16/33/33 23/45/45 12/14/14
s 3
f 25/46/46 18/34/34 15/19/19
s 1
f 26/36/36 25/35/35 33/47/47 34/48/48 35/49/49
s 2
f 28/50/50 21/38/38 12/14/14
s 1
f 28/51/39 36/52/51 37/53/52 29/54/40
s 3
f 22/41/41 29/55/53 15/19/19
s 1
f 38/56/54 30/42/42 32/44/44 39/57/55 40/58/56 41/59/57
s 2
f 23/45/45 30/60/58 12/14/14
s 3
f 33/61/59 25/46/46 15/19/19
s 1
f 34/48/48 33/47/47 42/62/60 43/63/61 44/64/62 45/65/63 46/66/64
s 2
f 36/67/65 28/50/50 12/14/14
s 1
f 36/52/51 47/68/66 48/69/67 37/53/52
s 3
f 29/55/53 37/70/68 15/19/19
s 1
f 49/71/69 38/56/54 41/59/57 50/72/70
s 2
f 30/60/58 38/73/71 12/14/14
s 3
f 42/74/72 33/61/59 15/19/19
s 1
f 43/63/61 42/62/60 51/75/73 52/76/74
s 2
f 47/77/75 36/67/65 12/14/14
s 1
f 47/68/66 53/78/76 54/79/77 48/69/67
s 3
f 37/70/68 48/80/78 15/19/19
s 1
f 55/81/79 49/71/69 50/72/70 56/82/80
s 2
f 38/73/71 49/83/81 12/14/14
s 3
f 51/84/82 42/74/72 15/19/19
s 1
f 52/76/74 51/75/73 57/85/83 58/86/84
s 2
f 53/87/85 47/77/75 12/14/14
s 1
f 53/78/76 59/88/86 60/89/87 54/79/77
s 3
f 48/80/78 54/90/88 15/19/19
s 1
f 61/91/89 55/81/79 56/82/80 62/92/90 63/93/91 64/94/92
s 2
f 49/83/81 55/95/93 12/14/14
s 3
f 57/96/94 51/84/82 15/19/19
s 1
f 58/86/84 57/85/83 65/97/95 66/98/96 67/99/97 68/100/98
s 2
f 59/101/99 53/87/85 12/14/14
s 1
f 59/88/86 69/102/100 70/103/101 71/104/102 60/89/87
s 3
f 54/90/88 60/105/103 15/19/19
s 1
f 72/106/104 61/91/89 64/94/92 73/107/105 74/108/106
s 2
f 55/95/93 61/109/107 12/14/14
s 3
f 65/110/108 57/96/94 15/19/19
s 1
f 66/98/96 65/97/95 75/111/109 76/112/110 77/113/111
s 2
f 69/114/112 59/101/99 12/14/14
s 1
f 69/102/100 78/115/113 79/116/114 70/103/101
f 80/117/115 81/118/116 71/104/102 70/103/101
s 3
f 60/105/103 71/119/117 15/19/19
s 1
f 78/115/113 72/106/104 74/108/106 79/116/114
s 2
f 61/109/107 72/120/118 12/14/14
s 3
f 75/121/119 65/110/108 15/19/19
s 1
f 76/112/110 75/111/109 81/118/116 80/117/115
s 2
f 78/122/120 69/114/112 12/14/14
s 3
f 71/119/117 81/123/121 15/19/19
s 2
f 72/120/118 78/122/120 12/14/14
s 3
f 81/123/121 75/121/119 15/19/19
s 1
f 27/37/122 82/124/123 83/125/124 20/26/26 19/25/25
f 35/49/125 84/126/126 85/127/127 82/124/123 27/37/122 26/36/128
s 4
f 83/128/129 82/129/130 86/130/131
s 1
f 20/26/26 83/125/124 87/131/132 11/11/11
s 5
f 84/126/133 35/49/134 34/48/135 46/66/136
s 1
f 44/64/137 88/132/138 85/127/127 84/126/126 45/65/139
s 4
f 82/129/130 85/133/140 86/130/131
f 87/134/141 83/128/129 86/130/131
s 1
f 11/11/11 87/131/132 89/135/142 17/136/21
s 5
f 45/65/143 84/126/133 46/66/136
s 1
f 52/76/144 90/137/145 88/132/138 44/64/137 43/63/146
s 4
f 85/133/140 88/138/147 86/130/131
f 89/139/148 87/134/141 86/130/131
s 1
f 17/136/21 89/135/142 91/140/149 24/141/150
f 58/86/151 92/142/152 90/137/145 52/76/144
s 4
f 88/138/147 90/143/153 86/130/131
f 91/144/154 89/139/148 86/130/131
s 1
f 24/141/150 91/140/149 93/145/155 94/146/156 31/147/157
f 68/100/158 95/148/159 96/149/160 92/142/152 58/86/151
s 4
f 90/143/153 92/150/161 86/130/131
f 93/151/162 91/144/154 86/130/131
s 1
f 40/152/163 94/146/156 93/145/155 97/153/164 41/154/165
s 6
f 31/155/166 94/156/167 39/157/168 32/158/169
s 7
f 67/99/170 95/148/171 68/100/172
s 1
f 76/112/173 98/159/174 96/149/160 95/148/159 77/113/175
s 4
f 92/150/161 96/160/176 86/130/131
f 97/161/177 93/151/162 86/130/131
s 6
f 39/157/168 94/156/167 40/162/178
s 1
f 41/154/165 97/153/164 99/163/179 50/164/180
s 7
f 77/113/181 95/148/171 67/99/170 66/98/182
s 1
f 80/117/115 100/165/183 98/159/174 76/112/173
s 4
f 96/160/176 98/166/184 86/130/131
f 99/167/185 97/161/177 86/130/131
s 1
f 50/164/180 99/163/179 101/168/186 56/169/187
f 70/103/101 102/170/188 100/165/183 80/117/115
s 4
f 98/166/184 100/171/189 86/130/131
f 101/172/190 99/167/185 86/130/131
s 1
f 56/173/187 101/174/186 103/175/191 104/176/192 62/177/193
f 79/178/114 105/179/194 102/170/188 70/103/101
s 4
f 100/171/189 102/180/195 86/130/131
f 103/181/196 101/172/190 86/130/131
s 1
f 73/182/197 104/176/192 103/175/191 106/183/198 74/184/199
s 8
f 62/185/200 104/186/201 63/187/202
s 1
f 74/184/199 106/183/198 105/179/194 79/178/114
s 4
f 102/180/195 105/188/203 86/130/131
f 106/189/204 103/181/196 86/130/131
s 8
f 104/186/201 73/190/205 64/191/206 63/187/202
s 4
f 105/188/203 106/189/204 86/130/131
s off
usemtl anisotropic8SG
f 107/192/207 108/193/208 110/194/209 109/195/210
