# This file uses centimeters as units for non-parametric coordinates.

mtllib UV_Planter1_1x4_DTG.mtl
g default
v 0.000000 0.000000 0.000000
v 1.000000 0.000000 0.000000
v 0.000000 0.000000 -4.000000
v 1.000000 0.000000 -4.000000
v 0.062367 1.000000 -0.062367
v 0.037623 1.000000 -0.037623
v 0.037623 1.000000 -3.962377
v 0.062367 1.000000 -3.937633
v 0.017496 1.000000 -0.017496
v 0.000000 0.982504 0.000000
v 0.017496 1.000000 -3.982503
v 0.000000 0.982504 -4.000000
v 0.982504 1.000000 -0.017496
v 1.000000 0.982504 0.000000
v 0.937633 1.000000 -0.062367
v 0.962377 1.000000 -0.037623
v 0.982504 1.000000 -3.982503
v 1.000000 0.982504 -4.000000
v 0.937633 1.000000 -3.937633
v 0.962377 1.000000 -3.962377
v 0.937633 0.900000 -0.062367
v 0.062367 0.900000 -0.062367
v 0.937633 0.900000 -3.937633
v 0.062367 0.900000 -3.937633
vt 0.000000 0.000000
vt 0.000000 1.000000
vt 1.000000 1.000000
vt 1.000000 0.000000
vt 1.000000 0.982504
vt 0.062367 0.015592
vt 0.000000 0.982504
vt 0.037623 0.009406
vt 0.000000 0.982504
vt 0.962377 0.009406
vt 0.937633 0.015592
vt 0.062367 0.984408
vt 0.037623 0.990594
vt 0.937633 0.984408
vt 0.962377 0.990594
vt 0.017496 0.004374
vt 0.000000 -0.000000
vt 1.000000 0.982504
vt 1.000000 0.000000
vt 0.000000 0.000000
vt 0.062367 1.000000
vt 0.937633 1.000000
vt -0.000000 0.000000
vt 1.000000 0.000000
vt 0.937633 0.900000
vt 1.000000 0.982504
vt 0.062367 0.900000
vt -0.000000 0.982504
vt 0.937633 1.000000
vt 0.062367 1.000000
vt 0.062367 0.900000
vt 0.937633 0.900000
vt 1.000000 -0.000000
vt 0.000000 -0.000000
vt 0.062367 0.015592
vt 0.937633 0.015592
vt 0.937633 0.984408
vt 0.062367 0.984408
vt 1.000000 -0.000000
vt 0.982504 0.004374
vt 0.017496 0.995626
vt 0.000000 1.000000
vt 0.982504 0.995626
vt 1.000000 1.000000
vt 1.000000 0.000000
vt -0.000000 0.000000
vt -0.000000 0.982504
vt 1.000000 0.982504
vt 0.015592 1.000000
vt 0.984408 1.000000
vt 0.984408 0.900000
vt 0.015592 0.900000
vt 0.984408 1.000000
vt 0.015592 1.000000
vt 0.015592 0.900000
vt 0.984408 0.900000
vn 0.000000 -1.000000 0.000000
vn 0.000000 -1.000000 0.000000
vn 0.000000 -1.000000 0.000000
vn 0.000000 -1.000000 0.000000
vn 0.000000 1.000000 0.000000
vn 0.000000 1.000000 -0.000000
vn 0.000000 1.000000 -0.000000
vn 0.000000 1.000000 0.000000
vn 0.000000 1.000000 0.000000
vn 0.000000 1.000000 0.000000
vn 0.000000 1.000000 0.000000
vn 0.000000 1.000000 0.000000
vn 0.000000 0.707107 0.707107
vn 0.000000 0.707107 0.707107
vn 0.000000 0.707107 0.707107
vn 0.000000 0.707107 0.707107
vn -0.707106 0.707107 0.000000
vn -0.707106 0.707107 0.000000
vn -0.707106 0.707107 0.000000
vn -0.707106 0.707107 0.000000
vn 0.000000 0.707109 -0.707105
vn 0.000000 0.707109 -0.707105
vn 0.000000 0.707109 -0.707105
vn 0.000000 0.707109 -0.707105
vn 0.707107 0.707107 0.000000
vn 0.707107 0.707107 0.000000
vn 0.707107 0.707107 0.000000
vn 0.707107 0.707107 0.000000
vn 0.000000 1.000000 -0.000000
vn 0.000000 1.000000 0.000000
vn 0.000000 1.000000 -0.000000
vn 0.000000 1.000000 0.000000
vn 0.000000 0.000000 1.000000
vn 0.000000 0.000000 1.000000
vn 0.000000 0.000000 1.000000
vn 0.000000 0.000000 1.000000
vn 0.000000 1.000000 0.000000
vn 0.000000 1.000000 0.000000
vn 0.000000 1.000000 0.000000
vn 0.000000 1.000000 0.000000
vn 0.000000 0.000000 -1.000000
vn 0.000000 0.000000 -1.000000
vn 0.000000 0.000000 -1.000000
vn 0.000000 0.000000 -1.000000
vn 1.000000 0.000000 0.000000
vn 1.000000 0.000000 0.000000
vn 1.000000 0.000000 0.000000
vn 1.000000 0.000000 0.000000
vn -1.000000 0.000000 0.000000
vn -1.000000 0.000000 0.000000
vn -1.000000 0.000000 0.000000
vn -1.000000 0.000000 0.000000
vn 0.000000 0.000000 -1.000000
vn 0.000000 0.000000 -1.000000
vn 0.000000 0.000000 -1.000000
vn 0.000000 0.000000 -1.000000
vn -1.000000 0.000000 0.000000
vn -1.000000 0.000000 0.000000
vn -1.000000 0.000000 0.000000
vn -1.000000 0.000000 0.000000
vn 0.000000 0.000000 1.000000
vn 0.000000 0.000000 1.000000
vn 0.000000 0.000000 1.000000
vn 0.000000 0.000000 1.000000
vn 1.000000 0.000000 0.000000
vn 1.000000 0.000000 0.000000
vn 1.000000 0.000000 0.000000
vn 1.000000 0.000000 0.000000
s off
g UV_BuildingFrame_Store1_DTG:pCube15
usemtl UV_BuildingFrame_Store1_DTG:anisotropic17SG
f 3/2/1 4/3/2 2/33/3 1/34/4
s 1
f 5/6/5 6/8/6 16/10/7 15/11/8
f 6/8/6 5/6/5 8/12/9 7/13/10
f 7/13/10 8/12/9 19/14/11 20/15/12
s off
f 9/16/13 10/17/14 14/39/15 13/40/16
f 10/17/17 9/16/18 11/41/19 12/42/20
f 12/42/21 11/41/22 17/43/23 18/44/24
f 13/40/25 14/39/26 18/44/27 17/43/28
s 1
f 15/11/8 16/10/7 20/15/12 19/14/11
f 9/16/29 6/8/6 7/13/10 11/41/30
f 6/8/6 9/16/29 13/40/31 16/10/7
f 16/10/7 13/40/31 17/43/32 20/15/12
f 11/41/30 7/13/10 20/15/12 17/43/32
s off
f 1/1/33 2/4/34 14/5/35 10/7/36
usemtl UV_BuildingFrame_Store1_DTG:anisotropic18SG
f 22/35/37 21/36/38 23/37/39 24/38/40
usemtl UV_BuildingFrame_Store1_DTG:anisotropic17SG
f 12/9/41 18/18/42 4/19/43 3/20/44
f 2/23/45 4/24/46 18/26/47 14/28/48
f 3/45/49 1/46/50 10/47/51 12/48/52
f 5/21/53 15/22/54 21/25/55 22/27/56
f 15/49/57 19/50/58 23/51/59 21/52/60
f 19/29/61 8/30/62 24/31/63 23/32/64
f 8/53/65 5/54/66 22/55/67 24/56/68
